<?xml version="1.0" standalone="no"?>
<!DOCTYPE svg PUBLIC "-//W3C//DTD SVG 1.1//EN" "http://www.w3.org/Graphics/SVG/1.1/DTD/svg11.dtd" >
<svg xmlns="http://www.w3.org/2000/svg" xmlns:xlink="http://www.w3.org/1999/xlink" version="1.1">
<metadata>
Created by FontForge 20201107 at Tue Feb 13 01:21:53 2024
 By 
(c)2022, Graphix Line Studio
</metadata>
<defs>
<font id="CountryWeddingRegular" horiz-adv-x="0" >
  <font-face 
    font-family="Country Wedding"
    font-weight="400"
    font-stretch="normal"
    units-per-em="2048"
    panose-1="0 0 0 0 0 0 0 0 0 0"
    ascent="1638"
    descent="-410"
    x-height="563"
    cap-height="1117"
    bbox="-519 -827 1584.94 1434"
    underline-thickness="0"
    underline-position="0"
    unicode-range="U+000A-F000"
  />
<missing-glyph horiz-adv-x="1079" 
d="M102 1434h875v-1434h-875v1434zM160 1393l379 -633l381 633h-760zM514 717l-369 614v-1231zM541 674l-379 -631h758zM565 717l371 -621v1239z" />
    <glyph glyph-name="tt.liga" unicode="tt" horiz-adv-x="636" 
d="M685 890q98 0 158.5 -26t60.5 -72q0 -20 -14 -37.5t-35 -17.5q-33 0 -33 21q0 10 12 17.5t12 19.5q0 21 -45 34t-119 13q-106 -2 -194 -14q-42 -319 -42 -517q0 -88 12 -203.5t39 -143.5q23 18 46.5 62.5t40.5 97.5t33 112.5t25.5 106.5t15.5 81l7 35q6 19 14 22q4 1 8 1
q7 0 13 -6t6 -19q0 -10 -8.5 -64t-28 -136t-45 -158t-66 -131t-85.5 -55q-106 0 -142 222q-71 -222 -164 -222q-159 0 -159 506v8q0 158 20 324q-140 -21 -221 -21q-98 0 -157.5 31.5t-59.5 87.5q0 20 16 43t37 23q18 0 26.5 -8t8.5 -18q0 -3 -13.5 -21t-13.5 -35
q0 -59 149 -59q85 0 235 25q12 90 24 143q2 11 4.5 18t9 17.5t20 16t32.5 5.5q33 0 53 -14.5t20 -34.5q0 -2 -16 -125q150 27 167 30q3 21 7 41.5t6.5 32t2.5 13.5q2 11 4.5 18t9 17.5t20 16t32.5 5.5q33 0 52.5 -14.5t19.5 -34.5l-9 -74q99 13 191 14zM317 261
q-4 69 -4 166q2 195 28 379q-9 -1 -166 -30q-35 -282 -35 -465q0 -88 12 -203.5t39 -143.5q64 49 126 297z" />
    <glyph glyph-name=".notdef" horiz-adv-x="1079" 
d="M102 1434h875v-1434h-875v1434zM160 1393l379 -633l381 633h-760zM514 717l-369 614v-1231zM541 674l-379 -631h758zM565 717l371 -621v1239z" />
    <glyph glyph-name=".null" 
 />
    <glyph glyph-name=".null" 
 />
    <glyph glyph-name="nonmarkingreturn" horiz-adv-x="682" 
 />
    <glyph glyph-name="controlLF" unicode="&#xa;" 
 />
    <glyph glyph-name="controlCR" unicode="&#xd;" 
 />
    <glyph glyph-name="space" unicode=" " horiz-adv-x="501" 
 />
    <glyph glyph-name="exclam" unicode="!" horiz-adv-x="368" 
d="M184 2q-25 0 -42.5 17t-17.5 41t17.5 41.5t42.5 17.5t42.5 -17.5t17.5 -41.5t-17.5 -41t-42.5 -17zM187 1108q40 0 62 -16.5t15 -53.5q-15 -82 -32 -362.5t-16 -443.5q0 -82 -49 -82q-26 0 -39 53q-26 116 -26 407q0 135 10 277t16 172q3 14 5 20t8 14.5t17 11.5t29 3z
" />
    <glyph glyph-name="quotedbl" unicode="&#x22;" horiz-adv-x="518" 
d="M169 1107q35 0 54 -12t16 -29q-3 -21 -8 -85.5t-5 -80.5q0 -14 -16 -24.5t-38 -10.5q-25 0 -40.5 12t-17.5 26t-7 83.5t-5 82.5q0 15 16.5 26.5t50.5 11.5zM346 1108q35 0 54 -12t16 -29q-3 -21 -8 -85.5t-5 -80.5q0 -14 -15.5 -24.5t-37.5 -10.5q-25 0 -41 12t-18 26
t-6.5 83.5t-4.5 82.5q0 16 16 27t50 11z" />
    <glyph glyph-name="quotedbl" unicode="&#x201d;" horiz-adv-x="518" 
d="M169 1107q35 0 54 -12t16 -29q-3 -21 -8 -85.5t-5 -80.5q0 -14 -16 -24.5t-38 -10.5q-25 0 -40.5 12t-17.5 26t-7 83.5t-5 82.5q0 15 16.5 26.5t50.5 11.5zM346 1108q35 0 54 -12t16 -29q-3 -21 -8 -85.5t-5 -80.5q0 -14 -15.5 -24.5t-37.5 -10.5q-25 0 -41 12t-18 26
t-6.5 83.5t-4.5 82.5q0 16 16 27t50 11z" />
    <glyph glyph-name="quotedbl" unicode="&#x201c;" horiz-adv-x="518" 
d="M169 1107q35 0 54 -12t16 -29q-3 -21 -8 -85.5t-5 -80.5q0 -14 -16 -24.5t-38 -10.5q-25 0 -40.5 12t-17.5 26t-7 83.5t-5 82.5q0 15 16.5 26.5t50.5 11.5zM346 1108q35 0 54 -12t16 -29q-3 -21 -8 -85.5t-5 -80.5q0 -14 -15.5 -24.5t-37.5 -10.5q-25 0 -41 12t-18 26
t-6.5 83.5t-4.5 82.5q0 16 16 27t50 11z" />
    <glyph glyph-name="numbersign" unicode="#" horiz-adv-x="1105" 
d="M972 803q31 0 31 -24q0 -20 -26 -25q-23 -5 -148 -13q-3 -11 -12 -41.5t-13 -47.5q-33 -127 -70 -278q100 -3 159 -10q15 -2 23.5 -10.5t8.5 -17.5q0 -20 -20 -20h-185q-40 -169 -59 -279q-4 -21 -20.5 -42t-40.5 -20q-40 1 -37 52v2q-1 6 -1 17q10 136 36 270
q-57 0 -201 -12q-31 -155 -46 -261q-3 -20 -18.5 -38t-39.5 -18q-20 0 -30.5 13.5t-9.5 36.5q4 107 24 255q-32 -3 -68.5 -7t-54 -6t-19.5 -2q-33 0 -33 30q0 18 31 24q32 6 152 19q24 157 72 377h-6q-88 0 -95 2l-6 1q-6 1 -10.5 3t-10 5t-8.5 9.5t-3 14.5q0 23 27 21
q38 -2 124 -2q60 262 76 294q10 24 47 27t66 -15.5t19 -47.5q-26 -74 -72 -258q61 0 201 6q70 259 85 289q8 15 23 20q20 9 48 4.5t45 -18.5q25 -19 15 -47q-29 -75 -77 -240l62 4t47 3t18 1zM609 374q32 166 83 360q-165 -6 -201 -6q-44 -186 -82 -366q127 10 200 12z" />
    <glyph glyph-name="dollar" unicode="$" horiz-adv-x="751" 
d="M468 533q85 -32 133.5 -71.5t48.5 -100.5q0 -63 -53 -128.5t-136 -92.5q-2 -98 -2 -117q0 -22 -21 -35.5t-44 -3.5t-28 46q-4 34 -9 96q-80 4 -122.5 41t-42.5 86q0 53 30.5 83.5t52.5 30.5q15 0 24 -9t4 -18.5t-23 -11.5q-20 -20 -20 -59q0 -40 31.5 -63.5t62.5 -25.5
q-7 120 -10 325q-52 18 -88.5 35.5t-75 46t-58.5 71t-20 96.5q0 86 64.5 150.5t182.5 77.5q2 54 4 80q2 22 15.5 34.5t32.5 13.5t37 -4.5t30.5 -18.5t11.5 -29q0 -3 -0.5 -13.5t-1 -30.5t-0.5 -38q74 -17 116 -63t42 -106q0 -45 -16.5 -86.5t-30.5 -59.5t-22 -23
q-14 -10 -29.5 -7t-20 13.5t2.5 23.5q13 16 27.5 53.5t14.5 79.5q0 22 -6.5 45t-27 46t-51.5 29q-1 -49 -4 -181.5t-5 -206.5zM344 579q-2 170 3 322q-40 -20 -65.5 -57t-32.5 -64.5t-7 -47.5q0 -61 26.5 -95.5t75.5 -57.5zM462 227q34 29 55.5 66t21.5 70q0 31 -19.5 58
t-52.5 41q-4 -169 -5 -235z" />
    <glyph glyph-name="percent" unicode="%" horiz-adv-x="888" 
d="M567 1085q20 27 53 27t58.5 -24t11.5 -51q-49 -94 -189.5 -463t-191.5 -552q-4 -14 -19.5 -26t-35.5 -12q-41 0 -31 53q44 245 150 557t194 491zM392 932q0 -20 -6 -46t-19.5 -56t-43 -50t-68.5 -20q-74 0 -113.5 53.5t-39.5 125.5q0 64 33.5 107t78.5 43q6 0 14.5 -1.5
t11.5 -1.5q10 3 21 3q57 0 94 -41.5t37 -115.5zM225 892q0 -37 10.5 -63t26.5 -26q20 0 46 38.5t26 92.5q0 12 -1.5 23.5t-3.5 20t-5.5 17t-6.5 14t-7.5 11t-8 8.5t-8.5 7t-7 5.5t-6 4t-5 2.5q-22 -34 -36 -81.5t-14 -73.5zM656 309q57 0 94 -42t37 -116q0 -20 -6 -46
t-19.5 -56t-43 -50t-68.5 -20q-74 0 -113.5 53.5t-39.5 125.5q0 64 33 107.5t78 43.5q6 0 15 -1.5t12 -1.5q11 3 21 3zM657 23q20 0 46 38.5t26 92.5q0 14 -1.5 26t-4.5 21.5t-6.5 17.5t-8.5 14.5t-8.5 11t-9.5 8.5t-8.5 6t-7.5 5l-5 3q-22 -34 -35.5 -81.5t-13.5 -74.5
q0 -37 10.5 -62.5t26.5 -25.5z" />
    <glyph glyph-name="ampersand" unicode="&#x26;" horiz-adv-x="802" 
d="M609 547q3 26 30 30q29 3 45 -25q8 -13 8 -32q0 -83 -35.5 -189.5t-99.5 -189.5q75 -85 103 -123t2 -51q-24 -13 -56 8q-6 4 -11 9q-45 42 -92 92l-3 3q-95 -83 -213 -83q-81 0 -133 36.5t-52 108.5q0 117 126 251q-122 175 -122 324q0 162 95.5 275.5t237.5 113.5
q111 0 186 -57t75 -144q0 -41 -13 -84.5t-32 -80t-50 -77.5t-56 -69t-61.5 -62.5t-56.5 -51.5t-50 -42t-33 -27l-3 -3q56 -85 152 -198q46 78 75.5 173.5t36.5 164.5zM506 1031q-102 0 -180.5 -104.5t-78.5 -243.5q0 -99 63 -217q4 4 6 5q41 29 80.5 63t82.5 79t74.5 90.5
t52.5 98.5t21 102q0 50 -27.5 88.5t-93.5 38.5zM277 49q92 0 168 88q-122 130 -175 199q-84 -94 -84 -186q0 -48 23 -74.5t68 -26.5z" />
    <glyph glyph-name="quotesingle" unicode="'" horiz-adv-x="342" 
d="M169 1108q35 0 54 -12t16 -29q-3 -21 -8 -85.5t-5 -80.5q0 -14 -16 -24.5t-38 -10.5q-25 0 -40.5 12t-17.5 26q-12 102 -12 166q0 16 16.5 27t50.5 11z" />
    <glyph glyph-name="quotesingle" unicode="&#x2019;" horiz-adv-x="342" 
d="M169 1108q35 0 54 -12t16 -29q-3 -21 -8 -85.5t-5 -80.5q0 -14 -16 -24.5t-38 -10.5q-25 0 -40.5 12t-17.5 26q-12 102 -12 166q0 16 16.5 27t50.5 11z" />
    <glyph glyph-name="quotesingle" unicode="&#x2018;" horiz-adv-x="342" 
d="M169 1108q35 0 54 -12t16 -29q-3 -21 -8 -85.5t-5 -80.5q0 -14 -16 -24.5t-38 -10.5q-25 0 -40.5 12t-17.5 26q-12 102 -12 166q0 16 16.5 27t50.5 11z" />
    <glyph glyph-name="parenleft" unicode="(" horiz-adv-x="495" 
d="M232 537q0 -148 50.5 -297t98.5 -210q9 -12 5.5 -26t-17 -18t-35.5 7q-30 16 -67.5 63t-75.5 117.5t-63.5 173t-25.5 211.5q0 117 30 242.5t82.5 212t109.5 86.5q37 0 58 -15.5t2 -38.5q-8 -9 -22 -31t-38 -70.5t-43.5 -104.5t-34 -137.5t-14.5 -164.5z" />
    <glyph glyph-name="parenright" unicode=")" horiz-adv-x="495" 
d="M170 1103q57 0 109.5 -86.5t82.5 -211.5t30 -242q0 -109 -25.5 -211.5t-63.5 -173t-75.5 -117.5t-67.5 -63q-20 -11 -35 -7t-17 17t6 26q48 61 98.5 210t50.5 297q0 83 -14.5 164.5t-34 137.5t-43.5 105t-38 71t-22 31q-19 23 1.5 38t57.5 15z" />
    <glyph glyph-name="asterisk" unicode="*" horiz-adv-x="577" 
d="M440 1033q21 7 31 -10q8 -14 -4 -21q-31 -20 -73 -23q14 -42 37 -62q25 -4 25 -21q0 -21 -32 -21q-12 0 -24 3t-21.5 7t-19 10.5t-16 12t-13 12.5t-9.5 11.5l-7 10.5l-4 5q-4 -5 -14.5 -21.5t-21 -30t-18.5 -18.5q-26 -16 -53 -16q-28 0 -54.5 15.5t-3.5 37.5
q12 12 41 58q-18 1 -64 15q-13 4 -18.5 15.5t4 21.5t33.5 10q8 0 36.5 -6.5t37.5 -7.5q11 19 24 42t20.5 35.5t8.5 14.5q13 16 38.5 18t46.5 -10.5t22 -34.5q2 -35 7 -62q33 4 58 10z" />
    <glyph glyph-name="plus" unicode="+" horiz-adv-x="573" 
d="M439 534q33 -2 33 -27q0 -15 -10.5 -18t-36.5 -3q-29 0 -85 -2q-3 -67 -3 -120q0 -26 -13 -44t-41 -18q-9 0 -16.5 2.5t-12.5 8t-8.5 9.5t-6 13.5t-4 14t-3.5 15.5t-2 13q-8 51 -9 102q-20 -1 -41 -2t-32 -1.5t-14 -0.5q-12 0 -22 9t-10 22q0 26 57 26q34 0 60 1
q-2 88 2 112q-2 37 29 48t63.5 -1.5t32.5 -32.5q0 -22 -4 -124q17 0 41 -0.5t38 -1t18 -0.5z" />
    <glyph glyph-name="comma" unicode="," horiz-adv-x="325" 
d="M222 48q0 -32 -13 -70.5t-38 -61.5q-12 -11 -28 -3t-11 24q22 54 22 56q-22 2 -37 19t-15 39q0 25 17.5 42t42.5 17t42.5 -17t17.5 -42v-3z" />
    <glyph glyph-name="hyphen" unicode="-" horiz-adv-x="536" 
d="M400 532q34 -5 34 -26q0 -4 -0.5 -6.5t-2 -4.5t-2.5 -3.5t-4 -2.5t-5 -1.5t-6 -0.5h-6.5h-8h-8.5q-125 -2 -261 -2q-28 0 -28 28q0 13 9 17.5t38 3.5h127q20 0 50.5 -0.5t48.5 -0.5t25 -1z" />
    <glyph glyph-name="period" unicode="." horiz-adv-x="325" 
d="M162 -15q-25 0 -42.5 17.5t-17.5 41.5t17.5 41t42.5 17t42.5 -17t17.5 -41t-17.5 -41.5t-42.5 -17.5z" />
    <glyph glyph-name="slash" unicode="/" horiz-adv-x="679" 
d="M449 1078q20 27 53 27t58.5 -24t11.5 -51q-50 -95 -190.5 -463t-191.5 -551q-4 -14 -19.5 -26.5t-35.5 -12.5q-41 0 -31 53q44 245 150.5 556.5t194.5 491.5z" />
    <glyph glyph-name="zero" unicode="0" horiz-adv-x="759" 
d="M386 1114q53 0 99.5 -25t86 -78t62.5 -148t23 -222q0 -107 -18.5 -220t-53 -214.5t-92.5 -166t-128 -64.5q-98 0 -180.5 166.5t-82.5 415.5q0 108 19.5 200t34.5 124t27 50q29 42 74 42q30 0 46.5 -12t16.5 -27l-18 -65q-19 -66 -37.5 -178t-18.5 -225q0 -100 19 -202
t53.5 -171.5t72.5 -69.5q33 0 71.5 52.5t71 135t54 195.5t21.5 223q0 182 -69 308.5t-156 126.5q-21 0 -61.5 -24t-47.5 -35q-10 -16 -27 -16q-20 0 -25.5 17t7.5 29q1 1 7.5 8t11 11t14 12.5t18 14t21 12t24.5 10.5t28 7t32 3z" />
    <glyph glyph-name="one" unicode="1" horiz-adv-x="378" 
d="M196 1106q38 0 59.5 -15t21.5 -32q0 -1 -13.5 -100t-27 -251.5t-13.5 -283.5q0 -40 3.5 -137t7.5 -179t4 -86q0 -44 -44 -44q-25 0 -42 53q-8 24 -17.5 73.5t-21 187.5t-11.5 306q0 118 5 223.5t10 158t9 68.5q3 15 5.5 21t9.5 17t20.5 15.5t34.5 4.5z" />
    <glyph glyph-name="two" unicode="2" horiz-adv-x="796" 
d="M446 1101q112 0 179.5 -77.5t67.5 -179.5q0 -101 -32 -186.5t-87 -154.5t-114.5 -129.5t-131 -143.5t-119.5 -166q2 0 37.5 8.5t67 14.5t84 12t100.5 6q89 0 136.5 -24t47.5 -66q0 -30 -23 -30q-16 0 -20 15t1 21q-1 1 -4.5 3.5t-5.5 4t-8 4.5t-12 4.5t-16.5 4t-23 3.5
t-31 2t-39.5 1q-46 0 -106.5 -8t-103.5 -17t-82 -18l-40 -9q-13 -13 -27 -13h-1q-8 0 -13.5 1t-12.5 11t-7 28q0 44 33 103t82 118t107 135.5t107 151t82 169t33 185.5q0 54 -24.5 106.5t-64.5 52.5q-33 0 -80 -20t-97.5 -58.5t-86 -108.5t-35.5 -155q0 -25 -3.5 -33
t-16.5 -8q-21 0 -31 31.5t-10 62.5q0 74 33 140t83.5 110t111 70t116.5 26z" />
    <glyph glyph-name="three" unicode="3" horiz-adv-x="851" 
d="M539 648q49 -14 88 -41t61.5 -57.5t37 -66t19.5 -63.5t5 -52q0 -98 -56 -193.5t-153.5 -157.5t-205.5 -62q-93 0 -163 62t-70 156q0 73 40 118.5t78 45.5q10 0 18 -5t8 -12q0 -15 -22 -17l-6 -3q-5 -4 -9 -7t-11 -8.5t-11.5 -13.5t-9.5 -18t-7.5 -24.5t-2.5 -30.5
q0 -80 54.5 -132.5t108.5 -52.5q60 0 123 48t106 132.5t43 176.5q0 25 -6 60t-18.5 73.5t-35 65t-51.5 26.5q-22 0 -38.5 -3.5t-22.5 -3.5q-34 0 -56.5 16t-22.5 31q0 4 2 8t4 6.5t6.5 6.5t7 6t8 6t7.5 5q45 30 91 100t46 165q0 117 -76 117q-77 0 -153.5 -66t-97.5 -134
q0 -1 -1.5 -5.5l-2 -6t-2.5 -4.5t-5.5 -4t-8.5 -1q-10 0 -18.5 9.5t-8.5 21.5q0 27 22 69t58 83t90 70t110 29q92 0 163.5 -64t71.5 -162q0 -72 -43.5 -140.5t-81.5 -101.5z" />
    <glyph glyph-name="four" unicode="4" horiz-adv-x="798" 
d="M616 1109q38 0 59.5 -14.5t21.5 -31.5q0 -1 -11.5 -101t-23.5 -253.5t-12 -284.5q0 -40 2 -139t3.5 -183.5t1.5 -88.5q0 -15 -11.5 -27.5t-36.5 -12.5q-28 0 -44 51q-6 20 -15 75t-18.5 194t-9.5 308q0 88 4 206q-4 -8 -25 -57.5t-43.5 -93.5t-54 -94.5t-70.5 -80.5
t-78 -30q-73 0 -113 92.5t-40 240.5q0 151 26 248q4 13 6.5 19.5t9 15.5t18.5 12.5t30 3.5q46 0 65.5 -18.5t19.5 -37.5q0 -4 -5.5 -58t-11 -129t-5.5 -129q0 -59 7.5 -121t23.5 -81q31 15 72.5 81.5t70.5 129t65.5 149t41.5 96.5q3 47 10 86q3 15 5.5 21t9.5 17t20.5 15.5
t34.5 4.5z" />
    <glyph glyph-name="five" unicode="5" horiz-adv-x="808" 
d="M479 802q108 0 167.5 -83.5t59.5 -219.5q0 -120 -36 -223t-92 -167.5t-120.5 -101t-124.5 -36.5q-45 0 -81.5 16.5t-59.5 42.5t-39 57.5t-22.5 60.5t-6.5 54q0 35 26 35q25 0 25 -26q0 -9 9.5 -34.5t27.5 -58.5t55 -58t83 -25q76 0 143.5 125.5t67.5 290.5
q0 91 -28.5 174t-75.5 112q-35 -12 -67 -37.5t-53.5 -54.5t-37 -55t-25.5 -47t-11 -22q-25 -33 -66 -33q-96 0 -95 268v8q0 183 25 288q7 32 33.5 42t89.5 10q10 0 114.5 -8t152.5 -8q30 0 61 4t50 8l19 4q0 5 4 10.5t11 5.5q13 0 20 -11t7 -20q0 -60 -166 -60
q-69 0 -146 9.5t-93 9.5q0 -26 -15 -173.5t-15 -209.5q1 1 12 15t19.5 23.5t24.5 25.5t32.5 27t37.5 22.5t46.5 17.5t52.5 6z" />
    <glyph glyph-name="six" unicode="6" horiz-adv-x="794" 
d="M471 680q109 0 165 -80t56 -200q0 -48 -8.5 -100.5t-30 -110t-53 -102.5t-82 -74t-112.5 -29q-37 0 -78.5 23t-81.5 69t-72 108t-52 148t-20 181q0 137 32 252.5t83.5 188.5t115 113t128.5 40q78 0 132.5 -52t54.5 -135q0 -50 -22 -50q-19 0 -19 28q0 53 -39.5 101.5
t-76.5 48.5q-74 0 -143.5 -136t-91.5 -321q112 89 215 89zM442 43q54 0 97.5 55.5t65.5 135.5t22 164q0 116 -51 174.5t-109 58.5q-55 0 -128.5 -58.5t-88.5 -100.5l-2 -3v-2q0 -95 26 -193t72 -164.5t96 -66.5z" />
    <glyph glyph-name="seven" unicode="7" horiz-adv-x="872" 
d="M620 1112q52 0 100.5 -34.5t48.5 -89.5q0 -38 -36 -105t-72.5 -119t-118.5 -163q139 0 139 -44q0 -25 -14 -25q-6 0 -9.5 2.5t-6.5 7t-4 5.5q-2 0 -24 2.5t-52.5 4.5t-54.5 2h-8q-123 -167 -205.5 -301t-124.5 -261q0 -26 -9 -32q-7 -4 -19 -4q-30 0 -39 19t-9 54
q0 152 222 514q-19 -2 -42 -4t-35.5 -3t-15.5 -1q-30 0 -30 31q0 21 32 25q12 1 125 6q56 89 131 200.5t115 171t42 71.5q-70 0 -205.5 -37.5t-207.5 -37.5q-82 0 -111 23q-1 1 -3 2t-3 2l-3 3t-3 3.5t-1.5 4.5t-0.5 7q2 15 17 15q3 0 9 -1.5t20.5 -3.5t37.5 -2
q83 0 227.5 46t200.5 46z" />
    <glyph glyph-name="eight" unicode="8" horiz-adv-x="794" 
d="M439 1096q106 0 179.5 -82t73.5 -227q0 -134 -84 -309q75 -72 75 -173q0 -136 -95 -234t-224 -98q-120 0 -191 88.5t-71 214.5q0 66 20.5 130t40.5 97t32 42q3 2 12 9.5t14 11t17.5 7t27.5 3.5q34 0 56 -12t22 -28q0 -10 -21.5 -50.5t-43 -107.5t-21.5 -142
q0 -88 36 -146.5t93 -58.5q73 0 148.5 78t75.5 185q2 67 -37 119q-59 -105 -111 -178q-6 -10 -20.5 -12.5t-21.5 6t3 30.5q52 95 100 206q-29 24 -79.5 53.5t-89.5 54t-77.5 57t-60 78.5t-21.5 103q0 110 76.5 197.5t166.5 87.5zM277 816q0 -45 15.5 -82t47.5 -66.5t60 -49
t76 -47.5t72 -45q57 151 57 254q0 68 -13.5 125.5t-48.5 99.5t-88 42q-65 0 -121.5 -76.5t-56.5 -154.5z" />
    <glyph glyph-name="nine" unicode="9" horiz-adv-x="831" 
d="M563 1078q74 0 98 -68q69 -196 69 -415q0 -287 -103 -459t-249 -172q-44 0 -82.5 21.5t-61 51.5t-35.5 59t-13 48q0 29 25 29q6 0 9 -0.5t7 -5t8 -14.5q6 -14 16 -30t29.5 -42t48 -42.5t60.5 -16.5q31 0 64 33t62 93.5t47.5 159t18.5 216.5q0 132 -33 324
q-8 -20 -30.5 -84t-44.5 -118t-51.5 -113t-66.5 -93.5t-75 -34.5q-55 0 -97.5 47t-61.5 110t-19 126q0 144 83.5 252.5t198.5 108.5q69 1 132 -31q0 13 1 20t4.5 18t14 16.5t27.5 5.5zM287 464q88 61 231 489q-4 9 -30 22t-55 13q-48 0 -95.5 -56.5t-74.5 -136t-24 -148.5
q5 -145 48 -183z" />
    <glyph glyph-name="colon" unicode=":" horiz-adv-x="327" 
d="M164 313q-25 0 -42.5 17.5t-17.5 41.5t17.5 41t42.5 17t42.5 -17t17.5 -41t-17.5 -41.5t-42.5 -17.5zM167 644q-25 0 -42.5 17t-17.5 42q0 24 17 41t41 17t41 -16.5t18 -40.5t-16 -41.5t-41 -18.5z" />
    <glyph glyph-name="semicolon" unicode=";" horiz-adv-x="325" 
d="M222 374q0 -32 -13 -71t-38 -62q-12 -11 -28 -2.5t-11 24.5q22 54 22 56q-24 3 -38.5 22t-12.5 43t20.5 39.5t42.5 14.5q24 -2 40.5 -19.5t15.5 -41.5v-3zM162 649q-25 0 -42.5 17.5t-17.5 41.5t17.5 41t42.5 17t42.5 -17t17.5 -41t-17.5 -41.5t-42.5 -17.5z" />
    <glyph glyph-name="less" unicode="&#x3c;" horiz-adv-x="614" 
d="M403 764q35 19 67.5 -2.5t38.5 -52.5t-7 -44q-12 -7 -73 -45.5t-130.5 -82.5t-72.5 -46q205 -96 229 -114q41 -30 28 -48q-9 -13 -33 -3q-39 16 -150.5 64t-133.5 60q-34 18 -50 42.5t-14.5 45t14.5 33.5q27 28 135 101.5t152 91.5z" />
    <glyph glyph-name="equal" unicode="=" horiz-adv-x="567" 
d="M140 632q-11 0 -19.5 8t-8.5 23q0 22 43 22q3 0 117 1t118 1h8q17 0 25 -0.5t19.5 -3t16.5 -8.5t5 -17q0 -24 -29 -24q-7 0 -148 -1t-147 -1zM431 490q6 0 12.5 -2t13.5 -9.5t7 -18.5q0 -24 -22 -24q-49 0 -98 -1t-84 -2t-63 -2.5t-44.5 -2.5t-17.5 -1q-13 1 -23 11
t-10 24q0 26 30 26q4 0 73.5 2t84.5 2q34 0 67 -0.5t53 -1t21 -0.5z" />
    <glyph glyph-name="greater" unicode="&#x3e;" horiz-adv-x="614" 
d="M499 572q13 -13 14.5 -33.5t-14 -45t-49.5 -42.5q-22 -12 -133.5 -60t-151.5 -64q-24 -10 -34 4q-11 19 29 48q20 16 229 113q-3 2 -72.5 46t-130.5 82.5t-73 45.5q-13 13 -7 44t38.5 52.5t67.5 2.5q44 -18 152 -91.5t135 -101.5z" />
    <glyph glyph-name="question" unicode="?" horiz-adv-x="745" 
d="M334 110q25 0 42.5 -17t17.5 -42q0 -24 -17 -41t-41 -17t-41 16.5t-18 40.5t16 41.5t41 18.5zM379 1101q47 0 93 -15t85 -44t63 -76.5t24 -106.5q0 -74 -42 -154.5t-104.5 -179.5t-91.5 -178q-14 -38 -28.5 -93t-20.5 -67q-15 -33 -41 -33q-49 0 -49 89q0 70 24.5 145.5
t60 140.5t71 128.5t60 130.5t24.5 125q0 64 -25.5 99.5t-93.5 35.5q-88 0 -160 -68.5t-72 -163.5q0 -44 7 -58q10 -16 -4 -25t-26 6q-31 40 -31 103q0 40 17.5 84t50 84t87.5 65.5t122 25.5z" />
    <glyph glyph-name="at" unicode="@" horiz-adv-x="870" 
d="M469 878q138 0 218.5 -88.5t80.5 -230.5q0 -42 -8 -87.5t-25.5 -92.5t-51 -77t-78.5 -30q-37 0 -66 21t-44.5 52t-23.5 54.5t-10 40.5q-2 -3 -9 -18t-13.5 -24.5t-16.5 -21.5t-23.5 -18.5t-29.5 -6.5q-46 0 -75.5 42.5t-29.5 101.5q0 81 51.5 138t114.5 57q11 0 19 -1
t15 -4t10 -4.5t8 -6.5l6 -4v3q16 17 56 9.5t40 -33.5q0 -2 -5 -31t-9.5 -70t-4.5 -72q0 -62 17 -111t36 -49q14 0 33.5 26t36.5 75.5t17 104.5q0 128 -64 216.5t-156 88.5q-107 0 -197.5 -96t-90.5 -245q0 -110 56 -183.5t142 -73.5q7 0 13 3q8 14 20 12q13 0 19 -10t-5 -22
q-21 -21 -59 -21q-48 0 -95 17t-90 51.5t-69.5 95.5t-26.5 139q0 158 102.5 271t264.5 113zM464 624v2q-5 5 -13 10q-34 -29 -53.5 -82.5t-19.5 -102.5q0 -25 7 -39q22 27 45.5 98t33.5 114z" />
    <glyph glyph-name="A" unicode="A" horiz-adv-x="1024" 
d="M1106 485q7 0 13.5 -6.5t6.5 -22.5t-2.5 -62.5t-8.5 -132t-20 -171.5t-33.5 -166t-52.5 -130t-74 -50q-46 0 -85.5 50t-68 137t-48.5 192.5t-32 227.5q-140 5 -150 5q-18 0 -57.5 -1.5t-46.5 -1.5q-1 -1 -1 -2.5t-1 -2.5q-93 -285 -178 -469.5t-142 -184.5q-23 0 -23 17
q0 12 18 20q139 185 268 620q-43 -2 -92.5 -5t-78 -5t-31.5 -2q-33 0 -33 23q0 16 28 20q51 8 220 14q12 41 32 111t31.5 110t30 99.5t31 94t30 78.5t32.5 69t32.5 49t36 34t38.5 10q37 0 62.5 -17.5t40 -53.5t22 -78t10.5 -106t3.5 -122t2 -141t5.5 -148q64 -3 75 -5
q27 -4 27 -21q0 -19 -21 -19q-2 0 -12 0.5t-29 1.5t-37 2v-1q22 -292 40 -382q23 -119 67 -168q22 19 41 66t32.5 106.5t24.5 126.5t17.5 132t11 116.5t7 86t2.5 35.5q4 23 19 23zM549 399q40 0 148 -6q0 1 -0.5 2.5t-0.5 2.5q-8 101 -8.5 295t-12.5 266
q-28 -42 -51.5 -90.5t-46.5 -111.5t-37.5 -106.5t-40.5 -128.5t-38 -124q30 1 88 1z" />
    <glyph glyph-name="A" unicode="&#xc5;" horiz-adv-x="1024" 
d="M1106 485q7 0 13.5 -6.5t6.5 -22.5t-2.5 -62.5t-8.5 -132t-20 -171.5t-33.5 -166t-52.5 -130t-74 -50q-46 0 -85.5 50t-68 137t-48.5 192.5t-32 227.5q-140 5 -150 5q-18 0 -57.5 -1.5t-46.5 -1.5q-1 -1 -1 -2.5t-1 -2.5q-93 -285 -178 -469.5t-142 -184.5q-23 0 -23 17
q0 12 18 20q139 185 268 620q-43 -2 -92.5 -5t-78 -5t-31.5 -2q-33 0 -33 23q0 16 28 20q51 8 220 14q12 41 32 111t31.5 110t30 99.5t31 94t30 78.5t32.5 69t32.5 49t36 34t38.5 10q37 0 62.5 -17.5t40 -53.5t22 -78t10.5 -106t3.5 -122t2 -141t5.5 -148q64 -3 75 -5
q27 -4 27 -21q0 -19 -21 -19q-2 0 -12 0.5t-29 1.5t-37 2v-1q22 -292 40 -382q23 -119 67 -168q22 19 41 66t32.5 106.5t24.5 126.5t17.5 132t11 116.5t7 86t2.5 35.5q4 23 19 23zM549 399q40 0 148 -6q0 1 -0.5 2.5t-0.5 2.5q-8 101 -8.5 295t-12.5 266
q-28 -42 -51.5 -90.5t-46.5 -111.5t-37.5 -106.5t-40.5 -128.5t-38 -124q30 1 88 1z" />
    <glyph glyph-name="A" unicode="&#xc4;" horiz-adv-x="1024" 
d="M1106 485q7 0 13.5 -6.5t6.5 -22.5t-2.5 -62.5t-8.5 -132t-20 -171.5t-33.5 -166t-52.5 -130t-74 -50q-46 0 -85.5 50t-68 137t-48.5 192.5t-32 227.5q-140 5 -150 5q-18 0 -57.5 -1.5t-46.5 -1.5q-1 -1 -1 -2.5t-1 -2.5q-93 -285 -178 -469.5t-142 -184.5q-23 0 -23 17
q0 12 18 20q139 185 268 620q-43 -2 -92.5 -5t-78 -5t-31.5 -2q-33 0 -33 23q0 16 28 20q51 8 220 14q12 41 32 111t31.5 110t30 99.5t31 94t30 78.5t32.5 69t32.5 49t36 34t38.5 10q37 0 62.5 -17.5t40 -53.5t22 -78t10.5 -106t3.5 -122t2 -141t5.5 -148q64 -3 75 -5
q27 -4 27 -21q0 -19 -21 -19q-2 0 -12 0.5t-29 1.5t-37 2v-1q22 -292 40 -382q23 -119 67 -168q22 19 41 66t32.5 106.5t24.5 126.5t17.5 132t11 116.5t7 86t2.5 35.5q4 23 19 23zM549 399q40 0 148 -6q0 1 -0.5 2.5t-0.5 2.5q-8 101 -8.5 295t-12.5 266
q-28 -42 -51.5 -90.5t-46.5 -111.5t-37.5 -106.5t-40.5 -128.5t-38 -124q30 1 88 1z" />
    <glyph glyph-name="A" unicode="&#xc3;" horiz-adv-x="1024" 
d="M1106 485q7 0 13.5 -6.5t6.5 -22.5t-2.5 -62.5t-8.5 -132t-20 -171.5t-33.5 -166t-52.5 -130t-74 -50q-46 0 -85.5 50t-68 137t-48.5 192.5t-32 227.5q-140 5 -150 5q-18 0 -57.5 -1.5t-46.5 -1.5q-1 -1 -1 -2.5t-1 -2.5q-93 -285 -178 -469.5t-142 -184.5q-23 0 -23 17
q0 12 18 20q139 185 268 620q-43 -2 -92.5 -5t-78 -5t-31.5 -2q-33 0 -33 23q0 16 28 20q51 8 220 14q12 41 32 111t31.5 110t30 99.5t31 94t30 78.5t32.5 69t32.5 49t36 34t38.5 10q37 0 62.5 -17.5t40 -53.5t22 -78t10.5 -106t3.5 -122t2 -141t5.5 -148q64 -3 75 -5
q27 -4 27 -21q0 -19 -21 -19q-2 0 -12 0.5t-29 1.5t-37 2v-1q22 -292 40 -382q23 -119 67 -168q22 19 41 66t32.5 106.5t24.5 126.5t17.5 132t11 116.5t7 86t2.5 35.5q4 23 19 23zM549 399q40 0 148 -6q0 1 -0.5 2.5t-0.5 2.5q-8 101 -8.5 295t-12.5 266
q-28 -42 -51.5 -90.5t-46.5 -111.5t-37.5 -106.5t-40.5 -128.5t-38 -124q30 1 88 1z" />
    <glyph glyph-name="A" unicode="&#xc2;" horiz-adv-x="1024" 
d="M1106 485q7 0 13.5 -6.5t6.5 -22.5t-2.5 -62.5t-8.5 -132t-20 -171.5t-33.5 -166t-52.5 -130t-74 -50q-46 0 -85.5 50t-68 137t-48.5 192.5t-32 227.5q-140 5 -150 5q-18 0 -57.5 -1.5t-46.5 -1.5q-1 -1 -1 -2.5t-1 -2.5q-93 -285 -178 -469.5t-142 -184.5q-23 0 -23 17
q0 12 18 20q139 185 268 620q-43 -2 -92.5 -5t-78 -5t-31.5 -2q-33 0 -33 23q0 16 28 20q51 8 220 14q12 41 32 111t31.5 110t30 99.5t31 94t30 78.5t32.5 69t32.5 49t36 34t38.5 10q37 0 62.5 -17.5t40 -53.5t22 -78t10.5 -106t3.5 -122t2 -141t5.5 -148q64 -3 75 -5
q27 -4 27 -21q0 -19 -21 -19q-2 0 -12 0.5t-29 1.5t-37 2v-1q22 -292 40 -382q23 -119 67 -168q22 19 41 66t32.5 106.5t24.5 126.5t17.5 132t11 116.5t7 86t2.5 35.5q4 23 19 23zM549 399q40 0 148 -6q0 1 -0.5 2.5t-0.5 2.5q-8 101 -8.5 295t-12.5 266
q-28 -42 -51.5 -90.5t-46.5 -111.5t-37.5 -106.5t-40.5 -128.5t-38 -124q30 1 88 1z" />
    <glyph glyph-name="A" unicode="&#xc1;" horiz-adv-x="1024" 
d="M1106 485q7 0 13.5 -6.5t6.5 -22.5t-2.5 -62.5t-8.5 -132t-20 -171.5t-33.5 -166t-52.5 -130t-74 -50q-46 0 -85.5 50t-68 137t-48.5 192.5t-32 227.5q-140 5 -150 5q-18 0 -57.5 -1.5t-46.5 -1.5q-1 -1 -1 -2.5t-1 -2.5q-93 -285 -178 -469.5t-142 -184.5q-23 0 -23 17
q0 12 18 20q139 185 268 620q-43 -2 -92.5 -5t-78 -5t-31.5 -2q-33 0 -33 23q0 16 28 20q51 8 220 14q12 41 32 111t31.5 110t30 99.5t31 94t30 78.5t32.5 69t32.5 49t36 34t38.5 10q37 0 62.5 -17.5t40 -53.5t22 -78t10.5 -106t3.5 -122t2 -141t5.5 -148q64 -3 75 -5
q27 -4 27 -21q0 -19 -21 -19q-2 0 -12 0.5t-29 1.5t-37 2v-1q22 -292 40 -382q23 -119 67 -168q22 19 41 66t32.5 106.5t24.5 126.5t17.5 132t11 116.5t7 86t2.5 35.5q4 23 19 23zM549 399q40 0 148 -6q0 1 -0.5 2.5t-0.5 2.5q-8 101 -8.5 295t-12.5 266
q-28 -42 -51.5 -90.5t-46.5 -111.5t-37.5 -106.5t-40.5 -128.5t-38 -124q30 1 88 1z" />
    <glyph glyph-name="A" unicode="&#xc0;" horiz-adv-x="1024" 
d="M1106 485q7 0 13.5 -6.5t6.5 -22.5t-2.5 -62.5t-8.5 -132t-20 -171.5t-33.5 -166t-52.5 -130t-74 -50q-46 0 -85.5 50t-68 137t-48.5 192.5t-32 227.5q-140 5 -150 5q-18 0 -57.5 -1.5t-46.5 -1.5q-1 -1 -1 -2.5t-1 -2.5q-93 -285 -178 -469.5t-142 -184.5q-23 0 -23 17
q0 12 18 20q139 185 268 620q-43 -2 -92.5 -5t-78 -5t-31.5 -2q-33 0 -33 23q0 16 28 20q51 8 220 14q12 41 32 111t31.5 110t30 99.5t31 94t30 78.5t32.5 69t32.5 49t36 34t38.5 10q37 0 62.5 -17.5t40 -53.5t22 -78t10.5 -106t3.5 -122t2 -141t5.5 -148q64 -3 75 -5
q27 -4 27 -21q0 -19 -21 -19q-2 0 -12 0.5t-29 1.5t-37 2v-1q22 -292 40 -382q23 -119 67 -168q22 19 41 66t32.5 106.5t24.5 126.5t17.5 132t11 116.5t7 86t2.5 35.5q4 23 19 23zM549 399q40 0 148 -6q0 1 -0.5 2.5t-0.5 2.5q-8 101 -8.5 295t-12.5 266
q-28 -42 -51.5 -90.5t-46.5 -111.5t-37.5 -106.5t-40.5 -128.5t-38 -124q30 1 88 1z" />
    <glyph glyph-name="B" unicode="B" horiz-adv-x="958" 
d="M1053 476q14 -11 2 -27q-64 -83 -196 -168q11 -41 11 -90q0 -104 -46.5 -204t-115.5 -169t-149.5 -111.5t-149.5 -42.5q-26 0 -50 6t-47.5 20t-37.5 40.5t-14 63.5q0 78 30 145t75 110.5t105.5 82t112 60.5t104.5 45.5t74 37.5l1 1v5q0 48 -17 83t-46.5 53.5t-61.5 27
t-68 8.5q-32 0 -71 -12t-41 -12q-32 0 -47 16.5t-15 34.5q0 6 7 18t15 21.5t19 22t13 15.5q21 26 38 50t60.5 92.5t69.5 144t26 142.5q0 26 -7 42q-71 -25 -133 -100.5t-104.5 -173t-75 -214.5t-50 -220.5t-24.5 -195.5q1 -50 1 -94q0 -46 3 -77t6 -45t3 -19q0 -46 -47 -46
q-36 0 -49 52q0 1 -4.5 16t-8.5 30t-10.5 43.5t-11.5 58.5t-10.5 75t-9.5 92.5t-6.5 110.5t-2.5 130q0 146 17 296t28 177q1 3 3.5 9.5t3.5 9t3.5 7t5 6.5t7 5t9.5 4t12 2t16 1q80 0 80 -48q0 -7 -10.5 -91t-22 -188t-12.5 -159q20 87 45 167.5t60.5 162t74.5 141.5t90 97.5
t105 37.5q72 0 110.5 -48t38.5 -112q0 -53 -19 -113t-44.5 -108t-57 -93.5t-51 -69.5t-32.5 -37q100 -11 173 -56.5t108 -123.5q123 80 183 145q14 14 27 4zM380 -281q50 0 112 41t117.5 107.5t97.5 162t52 193.5h-1q-15 -10 -58 -30t-88 -40t-97.5 -53.5t-92.5 -70.5
t-67 -92t-27 -117q0 -101 52 -101z" />
    <glyph glyph-name="C" unicode="C" horiz-adv-x="843" 
d="M927 482q11 0 14.5 -5t3.5 -19q0 -9 -12 -64t-35 -144t-63.5 -186t-90.5 -183t-122.5 -141.5t-153.5 -55.5q-87 0 -159 59.5t-116 154t-67.5 205t-23.5 220.5q0 165 40.5 313.5t105 249.5t144 160t156.5 59q81 0 125 -50.5t44 -172.5q0 -113 -44 -189.5t-100 -76.5
q-27 0 -50 22.5t-23 58.5q0 34 25 34q6 0 10 -1.5t6.5 -4t4 -6.5t2.5 -6.5t2 -8t1 -7.5q5 -25 22 -40q33 13 61.5 74.5t28.5 135.5q0 22 -5 50t-14.5 57.5t-28 49t-42.5 19.5q-31 0 -83 -55t-105 -147t-91.5 -238t-38.5 -302q0 -249 76.5 -405t169.5 -156q54 0 108.5 51.5
t97 131t79.5 168.5t62 171.5t39 133t15 58.5q4 28 25 28z" />
    <glyph glyph-name="C" unicode="&#xc7;" horiz-adv-x="843" 
d="M927 482q11 0 14.5 -5t3.5 -19q0 -9 -12 -64t-35 -144t-63.5 -186t-90.5 -183t-122.5 -141.5t-153.5 -55.5q-87 0 -159 59.5t-116 154t-67.5 205t-23.5 220.5q0 165 40.5 313.5t105 249.5t144 160t156.5 59q81 0 125 -50.5t44 -172.5q0 -113 -44 -189.5t-100 -76.5
q-27 0 -50 22.5t-23 58.5q0 34 25 34q6 0 10 -1.5t6.5 -4t4 -6.5t2.5 -6.5t2 -8t1 -7.5q5 -25 22 -40q33 13 61.5 74.5t28.5 135.5q0 22 -5 50t-14.5 57.5t-28 49t-42.5 19.5q-31 0 -83 -55t-105 -147t-91.5 -238t-38.5 -302q0 -249 76.5 -405t169.5 -156q54 0 108.5 51.5
t97 131t79.5 168.5t62 171.5t39 133t15 58.5q4 28 25 28z" />
    <glyph glyph-name="D" unicode="D" horiz-adv-x="1206" 
d="M1290 484q14 0 18 -12t-3 -19q-93 -125 -278 -179q-38 -117 -98.5 -220.5t-145.5 -191t-201 -139t-248 -51.5q-109 0 -170.5 62t-61.5 164q0 153 117 239q-17 162 -16 309q0 146 17 296t28 177q1 3 3.5 9.5t3.5 9t3.5 7t5 6.5t7 5t9.5 4t12 2t16 1q42 0 61 -14t19 -35
q0 -7 -8.5 -66.5t-19 -147.5t-14.5 -154q14 61 33.5 123t54 140.5t74.5 137.5t98 99.5t121 40.5q109 0 190.5 -73.5t121.5 -188t40 -248.5q0 -117 -36 -251q144 47 235 150q7 8 12 8zM322 -276q173 0 320.5 143t222.5 375h-1l-2 -1q-31 -10 -125.5 -17.5t-205 -22.5
t-187.5 -46v-38q0 -69 5 -117t9.5 -69.5t4.5 -25.5q0 -47 -47 -47q-36 0 -49 50q-29 90 -40 172q-60 -63 -60 -154q0 -80 39 -141t116 -61zM880 293q43 157 43 326q0 109 -18 199.5t-59 151t-98 60.5q-73 0 -141.5 -72.5t-119.5 -191.5t-88 -264t-55 -299v-2
q53 19 126.5 34.5t124.5 22.5t147.5 18.5t132.5 16.5h5z" />
    <glyph glyph-name="E" unicode="E" horiz-adv-x="1122" 
d="M809 1097q185 0 299.5 -57.5t114.5 -128.5q0 -31 -11 -53t-29 -22q-11 1 -18 9t-6 18q0 2 9.5 15.5t9.5 30.5q0 34 -57 66.5t-147 52.5t-182 20q-59 0 -176 -9q5 -5 5 -20q0 -1 -9 -80.5t-19.5 -220t-13.5 -283.5q38 0 108.5 -3t79.5 -5q28 -5 28 -22q0 -20 -20 -20h-197
v-49q0 -118 9 -219t29.5 -193t60.5 -145t95 -53q20 0 42 4.5t41.5 11.5t40 17t38 20.5t35 22.5t31 22.5t26.5 21.5t20.5 18.5l13.5 13.5l7 6q12 11 22.5 9t12 -12t-4.5 -19q-11 -14 -38 -38t-75.5 -60.5t-114 -61.5t-128.5 -25q-309 0 -309 705q0 160 9.5 315t20 237
t16.5 94q-128 -11 -176 -11q-35 0 -66 4.5t-63.5 15.5t-51.5 34.5t-19 57.5q0 14 7.5 30t22.5 16q21 0 21 -20q0 -4 -5.5 -14.5t-5.5 -18.5q0 -25 32 -44t104 -19q50 0 245 19t286 19z" />
    <glyph glyph-name="E" unicode="&#xcb;" horiz-adv-x="1122" 
d="M809 1097q185 0 299.5 -57.5t114.5 -128.5q0 -31 -11 -53t-29 -22q-11 1 -18 9t-6 18q0 2 9.5 15.5t9.5 30.5q0 34 -57 66.5t-147 52.5t-182 20q-59 0 -176 -9q5 -5 5 -20q0 -1 -9 -80.5t-19.5 -220t-13.5 -283.5q38 0 108.5 -3t79.5 -5q28 -5 28 -22q0 -20 -20 -20h-197
v-49q0 -118 9 -219t29.5 -193t60.5 -145t95 -53q20 0 42 4.5t41.5 11.5t40 17t38 20.5t35 22.5t31 22.5t26.5 21.5t20.5 18.5l13.5 13.5l7 6q12 11 22.5 9t12 -12t-4.5 -19q-11 -14 -38 -38t-75.5 -60.5t-114 -61.5t-128.5 -25q-309 0 -309 705q0 160 9.5 315t20 237
t16.5 94q-128 -11 -176 -11q-35 0 -66 4.5t-63.5 15.5t-51.5 34.5t-19 57.5q0 14 7.5 30t22.5 16q21 0 21 -20q0 -4 -5.5 -14.5t-5.5 -18.5q0 -25 32 -44t104 -19q50 0 245 19t286 19z" />
    <glyph glyph-name="E" unicode="&#xca;" horiz-adv-x="1122" 
d="M809 1097q185 0 299.5 -57.5t114.5 -128.5q0 -31 -11 -53t-29 -22q-11 1 -18 9t-6 18q0 2 9.5 15.5t9.5 30.5q0 34 -57 66.5t-147 52.5t-182 20q-59 0 -176 -9q5 -5 5 -20q0 -1 -9 -80.5t-19.5 -220t-13.5 -283.5q38 0 108.5 -3t79.5 -5q28 -5 28 -22q0 -20 -20 -20h-197
v-49q0 -118 9 -219t29.5 -193t60.5 -145t95 -53q20 0 42 4.5t41.5 11.5t40 17t38 20.5t35 22.5t31 22.5t26.5 21.5t20.5 18.5l13.5 13.5l7 6q12 11 22.5 9t12 -12t-4.5 -19q-11 -14 -38 -38t-75.5 -60.5t-114 -61.5t-128.5 -25q-309 0 -309 705q0 160 9.5 315t20 237
t16.5 94q-128 -11 -176 -11q-35 0 -66 4.5t-63.5 15.5t-51.5 34.5t-19 57.5q0 14 7.5 30t22.5 16q21 0 21 -20q0 -4 -5.5 -14.5t-5.5 -18.5q0 -25 32 -44t104 -19q50 0 245 19t286 19z" />
    <glyph glyph-name="E" unicode="&#xc9;" horiz-adv-x="1122" 
d="M809 1097q185 0 299.5 -57.5t114.5 -128.5q0 -31 -11 -53t-29 -22q-11 1 -18 9t-6 18q0 2 9.5 15.5t9.5 30.5q0 34 -57 66.5t-147 52.5t-182 20q-59 0 -176 -9q5 -5 5 -20q0 -1 -9 -80.5t-19.5 -220t-13.5 -283.5q38 0 108.5 -3t79.5 -5q28 -5 28 -22q0 -20 -20 -20h-197
v-49q0 -118 9 -219t29.5 -193t60.5 -145t95 -53q20 0 42 4.5t41.5 11.5t40 17t38 20.5t35 22.5t31 22.5t26.5 21.5t20.5 18.5l13.5 13.5l7 6q12 11 22.5 9t12 -12t-4.5 -19q-11 -14 -38 -38t-75.5 -60.5t-114 -61.5t-128.5 -25q-309 0 -309 705q0 160 9.5 315t20 237
t16.5 94q-128 -11 -176 -11q-35 0 -66 4.5t-63.5 15.5t-51.5 34.5t-19 57.5q0 14 7.5 30t22.5 16q21 0 21 -20q0 -4 -5.5 -14.5t-5.5 -18.5q0 -25 32 -44t104 -19q50 0 245 19t286 19z" />
    <glyph glyph-name="E" unicode="&#xc8;" horiz-adv-x="1122" 
d="M809 1097q185 0 299.5 -57.5t114.5 -128.5q0 -31 -11 -53t-29 -22q-11 1 -18 9t-6 18q0 2 9.5 15.5t9.5 30.5q0 34 -57 66.5t-147 52.5t-182 20q-59 0 -176 -9q5 -5 5 -20q0 -1 -9 -80.5t-19.5 -220t-13.5 -283.5q38 0 108.5 -3t79.5 -5q28 -5 28 -22q0 -20 -20 -20h-197
v-49q0 -118 9 -219t29.5 -193t60.5 -145t95 -53q20 0 42 4.5t41.5 11.5t40 17t38 20.5t35 22.5t31 22.5t26.5 21.5t20.5 18.5l13.5 13.5l7 6q12 11 22.5 9t12 -12t-4.5 -19q-11 -14 -38 -38t-75.5 -60.5t-114 -61.5t-128.5 -25q-309 0 -309 705q0 160 9.5 315t20 237
t16.5 94q-128 -11 -176 -11q-35 0 -66 4.5t-63.5 15.5t-51.5 34.5t-19 57.5q0 14 7.5 30t22.5 16q21 0 21 -20q0 -4 -5.5 -14.5t-5.5 -18.5q0 -25 32 -44t104 -19q50 0 245 19t286 19z" />
    <glyph glyph-name="F" unicode="F" horiz-adv-x="798" 
d="M1103 963q0 37 -45 58t-168 21q-54 0 -111 -4t-90 -7.5t-94 -11.5t-83 -11q1 0 1 -1q0 -51 -13 -228t-18 -315q17 0 108.5 -2.5t94.5 -2.5q27 0 27 -20t-17 -20q-5 0 -102.5 -1t-111.5 -1q-2 -102 -2 -164q0 -128 3.5 -240t7 -177.5t3.5 -79.5q0 -36 -16.5 -55t-43.5 -19
q-6 0 -11.5 2t-9.5 4.5t-7.5 8.5t-5.5 9.5t-4 11t-2.5 10.5t-2.5 11.5t-2 9.5q-5 24 -15.5 108t-22.5 259t-12 345q0 88 6 211.5t12.5 220.5t6.5 104q-5 0 -17 -0.5t-17 -0.5q-95 0 -161 32t-66 89q0 8 4.5 15.5t10.5 7.5q9 0 16 -8t7 -17q0 -11 8.5 -23t26.5 -24t54 -20
t84 -8q92 0 310 29t275 29q247 0 247 -142q0 -33 -29 -64t-43 -31q-9 0 -16 8t-7 16q0 7 26.5 32t26.5 46z" />
    <glyph glyph-name="G" unicode="G" horiz-adv-x="864" 
d="M748 -26q64 -26 103 -85q7 -9 2 -21t-17 -12q-6 0 -10.5 3.5t-7 9t-3.5 6.5q-32 41 -78 62q-19 -73 -47.5 -130t-56.5 -88.5t-59.5 -52t-53.5 -27t-40 -6.5q-43 0 -63 34t-20 74q0 54 27 101t65.5 75.5t77 45t66.5 16.5q10 81 10 209q0 11 -0.5 47.5t-0.5 58.5
q-157 -333 -304 -333q-102 0 -169 108t-67 297q0 167 71 337t184.5 279.5t227.5 109.5q86 0 125.5 -53t39.5 -135q0 -73 -12 -125t-24 -74q-7 -12 -17.5 -12t-15 9t0.5 21q5 11 11.5 59.5t6.5 91.5q0 73 -24 118.5t-68 45.5q-51 0 -114 -67t-117.5 -169.5t-91.5 -238.5
t-37 -261q0 -115 33.5 -201.5t76.5 -86.5q59 0 138 128.5t144 310.5q0 19 -0.5 41t-0.5 23q0 47 45 47q22 0 37.5 -4.5t25 -18.5t15 -24.5t7.5 -39t2.5 -45t0.5 -57.5v-23q0 -243 -23 -363l-3 -15h2zM486 -320q5 0 16 6.5t28.5 25t34.5 46t34.5 75.5t27.5 107h-2
q-74 -10 -125 -67.5t-51 -115.5q0 -23 11 -50t26 -27z" />
    <glyph glyph-name="H" unicode="H" horiz-adv-x="1212" 
d="M1298 472q20 0 17 -28q-2 -19 -6.5 -51t-18 -110t-29.5 -150.5t-41.5 -157.5t-54 -147t-66.5 -104t-79 -42q-74 0 -129.5 100t-81.5 251t-26 326v5q-122 -53 -261 -70h-3q-3 -74 -9.5 -137.5t-18.5 -131.5t-31.5 -120.5t-46.5 -95t-66 -65.5t-87 -23t-85.5 41.5t-55 99.5
t-17.5 120q0 46 8.5 85.5t24 69t34 53.5t42 41t44 29.5t44 21t38 13t30 8t16.5 3.5l4 1v19q0 102 -3 211.5t-6 178.5t-3 72q0 44 45 44q78 0 90 -73q13 -80 13 -249q0 -111 -2 -172q139 15 263 80q4 121 24 239t53 218.5t84.5 162.5t112.5 62q67 0 97 -54.5t30 -132.5
q0 -47 -10 -93.5t-25.5 -84t-37.5 -74.5t-42.5 -63.5t-44.5 -53t-39.5 -41t-32 -29t-17.5 -15.5l-1 -1q-8 -114 -8 -227q0 -53 3.5 -114.5t13.5 -146.5t33.5 -151t57.5 -89q18 3 37 24.5t36 56t34 80.5t31.5 96t28 104t24.5 103.5t20.5 96t15.5 79t10 55.5l4 23q5 24 22 24z
M1080 1024q-107 -146 -140 -501q19 11 49 44t62.5 79.5t55 109.5t22.5 122q0 36 -14.5 82t-34.5 64zM268 -229q66 63 91 164t27 325h-1l-1 -1q-107 -22 -160.5 -83.5t-53.5 -172.5q0 -62 24 -132t74 -100z" />
    <glyph glyph-name="I" unicode="I" horiz-adv-x="542" 
d="M479 -260q36 0 61 -11.5t25 -31.5q0 -11 -6.5 -19t-16.5 -8q-11 0 -16.5 8t-5.5 13q-80 0 -174.5 -23t-99.5 -23q-10 0 -16 6q-7 7 -7 16q0 11 23 19q46 15 102 29q0 1 -0.5 1t-0.5 1q-28 56 -54.5 265.5t-26.5 521.5q0 256 35 532q-46 -7 -85 -8q-74 0 -107 33
q-12 13 -3 24t23 1q22 -16 76 -16q51 1 107 11q11 19 56 19q13 0 24 -4q109 21 148 21q60 0 88.5 -22t28.5 -47q0 -10 -8 -20.5t-15 -10.5q-23 0 -23 25q2 8 4 14q-2 1 -10.5 5t-20 6t-31.5 2q-38 0 -112 -12v-2q0 -5 -10 -128t-18.5 -297.5t-8.5 -338.5q0 -114 4.5 -221.5
t10 -167.5t11 -110.5t5.5 -56.5q15 3 44 5z" />
    <glyph glyph-name="I" unicode="&#xcf;" horiz-adv-x="542" 
d="M479 -260q36 0 61 -11.5t25 -31.5q0 -11 -6.5 -19t-16.5 -8q-11 0 -16.5 8t-5.5 13q-80 0 -174.5 -23t-99.5 -23q-10 0 -16 6q-7 7 -7 16q0 11 23 19q46 15 102 29q0 1 -0.5 1t-0.5 1q-28 56 -54.5 265.5t-26.5 521.5q0 256 35 532q-46 -7 -85 -8q-74 0 -107 33
q-12 13 -3 24t23 1q22 -16 76 -16q51 1 107 11q11 19 56 19q13 0 24 -4q109 21 148 21q60 0 88.5 -22t28.5 -47q0 -10 -8 -20.5t-15 -10.5q-23 0 -23 25q2 8 4 14q-2 1 -10.5 5t-20 6t-31.5 2q-38 0 -112 -12v-2q0 -5 -10 -128t-18.5 -297.5t-8.5 -338.5q0 -114 4.5 -221.5
t10 -167.5t11 -110.5t5.5 -56.5q15 3 44 5z" />
    <glyph glyph-name="I" unicode="&#xce;" horiz-adv-x="542" 
d="M479 -260q36 0 61 -11.5t25 -31.5q0 -11 -6.5 -19t-16.5 -8q-11 0 -16.5 8t-5.5 13q-80 0 -174.5 -23t-99.5 -23q-10 0 -16 6q-7 7 -7 16q0 11 23 19q46 15 102 29q0 1 -0.5 1t-0.5 1q-28 56 -54.5 265.5t-26.5 521.5q0 256 35 532q-46 -7 -85 -8q-74 0 -107 33
q-12 13 -3 24t23 1q22 -16 76 -16q51 1 107 11q11 19 56 19q13 0 24 -4q109 21 148 21q60 0 88.5 -22t28.5 -47q0 -10 -8 -20.5t-15 -10.5q-23 0 -23 25q2 8 4 14q-2 1 -10.5 5t-20 6t-31.5 2q-38 0 -112 -12v-2q0 -5 -10 -128t-18.5 -297.5t-8.5 -338.5q0 -114 4.5 -221.5
t10 -167.5t11 -110.5t5.5 -56.5q15 3 44 5z" />
    <glyph glyph-name="I" unicode="&#xcd;" horiz-adv-x="542" 
d="M479 -260q36 0 61 -11.5t25 -31.5q0 -11 -6.5 -19t-16.5 -8q-11 0 -16.5 8t-5.5 13q-80 0 -174.5 -23t-99.5 -23q-10 0 -16 6q-7 7 -7 16q0 11 23 19q46 15 102 29q0 1 -0.5 1t-0.5 1q-28 56 -54.5 265.5t-26.5 521.5q0 256 35 532q-46 -7 -85 -8q-74 0 -107 33
q-12 13 -3 24t23 1q22 -16 76 -16q51 1 107 11q11 19 56 19q13 0 24 -4q109 21 148 21q60 0 88.5 -22t28.5 -47q0 -10 -8 -20.5t-15 -10.5q-23 0 -23 25q2 8 4 14q-2 1 -10.5 5t-20 6t-31.5 2q-38 0 -112 -12v-2q0 -5 -10 -128t-18.5 -297.5t-8.5 -338.5q0 -114 4.5 -221.5
t10 -167.5t11 -110.5t5.5 -56.5q15 3 44 5z" />
    <glyph glyph-name="I" unicode="&#xcc;" horiz-adv-x="542" 
d="M479 -260q36 0 61 -11.5t25 -31.5q0 -11 -6.5 -19t-16.5 -8q-11 0 -16.5 8t-5.5 13q-80 0 -174.5 -23t-99.5 -23q-10 0 -16 6q-7 7 -7 16q0 11 23 19q46 15 102 29q0 1 -0.5 1t-0.5 1q-28 56 -54.5 265.5t-26.5 521.5q0 256 35 532q-46 -7 -85 -8q-74 0 -107 33
q-12 13 -3 24t23 1q22 -16 76 -16q51 1 107 11q11 19 56 19q13 0 24 -4q109 21 148 21q60 0 88.5 -22t28.5 -47q0 -10 -8 -20.5t-15 -10.5q-23 0 -23 25q2 8 4 14q-2 1 -10.5 5t-20 6t-31.5 2q-38 0 -112 -12v-2q0 -5 -10 -128t-18.5 -297.5t-8.5 -338.5q0 -114 4.5 -221.5
t10 -167.5t11 -110.5t5.5 -56.5q15 3 44 5z" />
    <glyph glyph-name="J" unicode="J" horiz-adv-x="1140" 
d="M1340 1122q13 0 19 -10t6 -20q0 -12 -18.5 -23.5t-58 -20t-91.5 -8.5q-41 0 -176 15q18 -155 18 -385q0 -94 -3 -174.5t-14.5 -184.5t-30.5 -186.5t-54 -166.5t-82 -140.5t-117 -92t-157 -35.5q-105 0 -196.5 53t-152 138.5t-95.5 192.5t-35 216q0 50 9.5 95.5t29.5 85
t55.5 63t82.5 23.5q54 0 108.5 -24t93.5 -56t72.5 -69t49 -59t19.5 -30q6 -9 2.5 -19t-18.5 -10t-26 16q-11 15 -21 28t-43.5 50.5t-65 63t-77 47t-86.5 21.5q-34 0 -58.5 -23.5t-35 -61.5t-14.5 -69.5t-4 -61.5q0 -65 17.5 -138.5t53.5 -146.5t85 -132t119.5 -96t149.5 -37
q54 0 97 27t72.5 71t52 111t35 137t20 159.5t10 167.5t2.5 172q0 50 -6.5 186.5t-4.5 288.5v1q-169 20 -239 20q-96 0 -159.5 -36.5t-63.5 -90.5q0 -12 3.5 -22.5t8 -17t4.5 -8.5q3 -11 -7.5 -16.5t-16.5 1.5q-32 38 -32 74q0 64 73 114.5t175 50.5q61 0 279.5 -23.5
t287.5 -23.5q32 0 65 3.5t49.5 7t19.5 5.5q3 11 15 13z" />
    <glyph glyph-name="K" unicode="K" horiz-adv-x="788" 
d="M870 478q28 0 18 -31l-15 -60q-15 -60 -32.5 -121t-49.5 -143t-67 -143.5t-85.5 -105t-104.5 -43.5q-38 0 -75.5 19t-63.5 43.5t-53 64t-41 64.5t-32 62t-20 41q3 -105 8.5 -201t10 -148t4.5 -58q0 -57 -54 -57q-10 0 -17.5 4t-12 8t-8.5 13t-5 13t-3.5 15t-2.5 12
q-8 35 -20.5 106.5t-29.5 265.5t-17 402q0 116 9.5 252.5t18.5 216.5t12 89l2 6q2 7 3 9.5t5.5 8t10 8t16.5 4.5t25 2q20 0 38.5 -3.5t36.5 -19t16 -40.5q-1 -7 -7 -59.5t-12.5 -116.5t-13 -150t-11 -192.5t-4.5 -210.5v-6q66 54 138.5 141.5t120.5 157.5t106 169t71 123.5
t38 73.5q3 4 3 5q4 8 15 15.5t19 7.5q29 0 38.5 -19t3.5 -38q-16 -43 -50 -108t-94.5 -160.5t-157.5 -206t-210 -202.5q13 -37 33 -85t57 -123.5t82 -125.5t86 -50q38 0 80 50t74.5 117.5t65 157t49.5 146t31 107.5q7 27 24 27z" />
    <glyph glyph-name="L" unicode="L" horiz-adv-x="466" 
d="M550 490q19 0 19 -30q0 -20 -17.5 -134.5t-48.5 -266.5t-86 -270.5t-118 -118.5q-36 0 -65.5 24t-49.5 69.5t-35 94.5t-23.5 115t-13.5 115t-7 111t-2.5 85t-0.5 55q0 151 9.5 306t20 240.5t16.5 110.5q5 20 9 30.5t14 25t27 21.5t42 7q35 0 54 -13t19 -49
q0 -13 -13.5 -130.5t-27 -299t-14.5 -347.5q-2 -462 65 -509q30 27 62 109.5t56 183.5t43.5 195.5t31.5 164t12 70.5q1 3 3 11.5t3.5 12t5.5 7.5t10 4z" />
    <glyph glyph-name="M" unicode="M" horiz-adv-x="1482" 
d="M1566 475q25 0 17 -35q0 -1 -1 -6q-77 -386 -180 -591q-81 -161 -163 -161q-39 0 -68.5 30.5t-45 78t-26.5 105t-12.5 112.5t-3.5 100t0 67v12q0 103 13 302t24 349.5t7 166.5q-72 -44 -148.5 -161.5t-130.5 -244.5t-87 -217t-39 -115q0 -30 -19.5 -54.5t-56.5 -24.5
q-27 0 -46.5 19t-22.5 61q-1 15 -5.5 224.5t-15.5 294.5q-60 -60 -113.5 -187.5t-89.5 -272.5t-58.5 -275.5t-30.5 -225.5q1 -22 2.5 -46.5t2.5 -37t1 -15.5q0 -12 -1.5 -20.5t-6 -18.5t-16 -15t-29.5 -5q-35 0 -47 54q-8 38 -20.5 113.5t-30 265.5t-17.5 376q0 109 8 249.5
t15 218t10 96.5q5 32 19.5 47t49.5 15t64 -14t27 -42q0 -4 -9 -81t-18 -165.5t-16.5 -228.5t-7.5 -270q0 -64 6 -216q10 55 21.5 112t34 155.5t49.5 180.5t60 161t73.5 124.5t81.5 45.5q32 0 55.5 -14t38 -42t24 -59t15 -75t8 -80.5t5.5 -85t6 -78.5q1 3 19.5 53.5t39 102
t52.5 125t66.5 135t73.5 117.5t82.5 88.5t83.5 32.5q44 0 73 -21t41.5 -60.5t16.5 -74t4 -82.5q0 -82 -25 -357t-25 -455q0 -232 40 -290q116 100 281 706q2 9 8.5 16.5t12.5 7.5z" />
    <glyph glyph-name="N" unicode="N" horiz-adv-x="1118" 
d="M1186 439q9 24 23.5 18.5t9.5 -29.5q-8 -35 -23.5 -109.5t-27.5 -127.5t-30 -124.5t-36 -120.5t-40 -95.5t-48 -70t-54 -23.5q-177 0 -174 698v23q0 44 3.5 175.5t5 200.5t-3.5 112q-68 -55 -143.5 -196t-139 -312t-114 -326.5t-86.5 -280.5t-39 -132q0 -56 -51 -56
q-38 0 -54 84q-8 44 -19.5 118.5t-27 264.5t-15.5 378q0 88 8.5 217.5t16.5 214.5t10 97q5 33 19 47t45 14q44 0 69.5 -14.5t25.5 -39.5q0 -28 -13 -120t-25.5 -254t-12.5 -359q0 -161 18 -472q94 339 148 504q231 683 391 698q28 0 50.5 -11.5t36.5 -26.5t24 -42t15 -47
t7.5 -53.5t2.5 -48v-43.5v-13q0 -25 -6 -262.5t-6 -350.5q0 -280 46 -333q16 13 36 54.5t40 97.5t40 120t37.5 127t30.5 113t21.5 83t8.5 34z" />
    <glyph glyph-name="N" unicode="&#xd1;" horiz-adv-x="1118" 
d="M1186 439q9 24 23.5 18.5t9.5 -29.5q-8 -35 -23.5 -109.5t-27.5 -127.5t-30 -124.5t-36 -120.5t-40 -95.5t-48 -70t-54 -23.5q-177 0 -174 698v23q0 44 3.5 175.5t5 200.5t-3.5 112q-68 -55 -143.5 -196t-139 -312t-114 -326.5t-86.5 -280.5t-39 -132q0 -56 -51 -56
q-38 0 -54 84q-8 44 -19.5 118.5t-27 264.5t-15.5 378q0 88 8.5 217.5t16.5 214.5t10 97q5 33 19 47t45 14q44 0 69.5 -14.5t25.5 -39.5q0 -28 -13 -120t-25.5 -254t-12.5 -359q0 -161 18 -472q94 339 148 504q231 683 391 698q28 0 50.5 -11.5t36.5 -26.5t24 -42t15 -47
t7.5 -53.5t2.5 -48v-43.5v-13q0 -25 -6 -262.5t-6 -350.5q0 -280 46 -333q16 13 36 54.5t40 97.5t40 120t37.5 127t30.5 113t21.5 83t8.5 34z" />
    <glyph glyph-name="O" unicode="O" horiz-adv-x="1138" 
d="M624 1093q197 0 304 -153t107 -442q0 -226 -59.5 -414t-159 -294t-215.5 -106q-95 0 -161 64.5t-105 171.5h-2q-14 5 -35.5 18t-58 48t-65 80.5t-50.5 122t-22 167.5q0 157 49 298t125.5 235t168.5 149t179 55zM643 -260q53 0 112.5 60.5t109.5 160t83 242.5t33 292
q0 108 -22.5 206t-65 175t-109 123t-148.5 46q-45 0 -102.5 -29.5t-117.5 -90t-109.5 -141t-81.5 -193.5t-32 -236q0 -76 15.5 -144.5t37 -111t38.5 -67t26 -30.5q-34 141 -34 278q0 135 26.5 247t76 178.5t111.5 66.5q49 0 49 -22q0 -8 -3.5 -12.5t-8.5 -7.5t-6 -4
q-86 -150 -86 -456q0 -173 43 -322l1 1q19 6 68 34.5t75 58.5q1 1 4 6t7.5 8.5t11.5 3.5q16 0 17.5 -12t-4.5 -18q-26 -38 -84 -74t-83 -44h-2q59 -172 154 -172z" />
    <glyph glyph-name="O" unicode="&#xd8;" horiz-adv-x="1138" 
d="M624 1093q197 0 304 -153t107 -442q0 -226 -59.5 -414t-159 -294t-215.5 -106q-95 0 -161 64.5t-105 171.5h-2q-14 5 -35.5 18t-58 48t-65 80.5t-50.5 122t-22 167.5q0 157 49 298t125.5 235t168.5 149t179 55zM643 -260q53 0 112.5 60.5t109.5 160t83 242.5t33 292
q0 108 -22.5 206t-65 175t-109 123t-148.5 46q-45 0 -102.5 -29.5t-117.5 -90t-109.5 -141t-81.5 -193.5t-32 -236q0 -76 15.5 -144.5t37 -111t38.5 -67t26 -30.5q-34 141 -34 278q0 135 26.5 247t76 178.5t111.5 66.5q49 0 49 -22q0 -8 -3.5 -12.5t-8.5 -7.5t-6 -4
q-86 -150 -86 -456q0 -173 43 -322l1 1q19 6 68 34.5t75 58.5q1 1 4 6t7.5 8.5t11.5 3.5q16 0 17.5 -12t-4.5 -18q-26 -38 -84 -74t-83 -44h-2q59 -172 154 -172z" />
    <glyph glyph-name="O" unicode="&#xd6;" horiz-adv-x="1138" 
d="M624 1093q197 0 304 -153t107 -442q0 -226 -59.5 -414t-159 -294t-215.5 -106q-95 0 -161 64.5t-105 171.5h-2q-14 5 -35.5 18t-58 48t-65 80.5t-50.5 122t-22 167.5q0 157 49 298t125.5 235t168.5 149t179 55zM643 -260q53 0 112.5 60.5t109.5 160t83 242.5t33 292
q0 108 -22.5 206t-65 175t-109 123t-148.5 46q-45 0 -102.5 -29.5t-117.5 -90t-109.5 -141t-81.5 -193.5t-32 -236q0 -76 15.5 -144.5t37 -111t38.5 -67t26 -30.5q-34 141 -34 278q0 135 26.5 247t76 178.5t111.5 66.5q49 0 49 -22q0 -8 -3.5 -12.5t-8.5 -7.5t-6 -4
q-86 -150 -86 -456q0 -173 43 -322l1 1q19 6 68 34.5t75 58.5q1 1 4 6t7.5 8.5t11.5 3.5q16 0 17.5 -12t-4.5 -18q-26 -38 -84 -74t-83 -44h-2q59 -172 154 -172z" />
    <glyph glyph-name="O" unicode="&#xd5;" horiz-adv-x="1138" 
d="M624 1093q197 0 304 -153t107 -442q0 -226 -59.5 -414t-159 -294t-215.5 -106q-95 0 -161 64.5t-105 171.5h-2q-14 5 -35.5 18t-58 48t-65 80.5t-50.5 122t-22 167.5q0 157 49 298t125.5 235t168.5 149t179 55zM643 -260q53 0 112.5 60.5t109.5 160t83 242.5t33 292
q0 108 -22.5 206t-65 175t-109 123t-148.5 46q-45 0 -102.5 -29.5t-117.5 -90t-109.5 -141t-81.5 -193.5t-32 -236q0 -76 15.5 -144.5t37 -111t38.5 -67t26 -30.5q-34 141 -34 278q0 135 26.5 247t76 178.5t111.5 66.5q49 0 49 -22q0 -8 -3.5 -12.5t-8.5 -7.5t-6 -4
q-86 -150 -86 -456q0 -173 43 -322l1 1q19 6 68 34.5t75 58.5q1 1 4 6t7.5 8.5t11.5 3.5q16 0 17.5 -12t-4.5 -18q-26 -38 -84 -74t-83 -44h-2q59 -172 154 -172z" />
    <glyph glyph-name="O" unicode="&#xd4;" horiz-adv-x="1138" 
d="M624 1093q197 0 304 -153t107 -442q0 -226 -59.5 -414t-159 -294t-215.5 -106q-95 0 -161 64.5t-105 171.5h-2q-14 5 -35.5 18t-58 48t-65 80.5t-50.5 122t-22 167.5q0 157 49 298t125.5 235t168.5 149t179 55zM643 -260q53 0 112.5 60.5t109.5 160t83 242.5t33 292
q0 108 -22.5 206t-65 175t-109 123t-148.5 46q-45 0 -102.5 -29.5t-117.5 -90t-109.5 -141t-81.5 -193.5t-32 -236q0 -76 15.5 -144.5t37 -111t38.5 -67t26 -30.5q-34 141 -34 278q0 135 26.5 247t76 178.5t111.5 66.5q49 0 49 -22q0 -8 -3.5 -12.5t-8.5 -7.5t-6 -4
q-86 -150 -86 -456q0 -173 43 -322l1 1q19 6 68 34.5t75 58.5q1 1 4 6t7.5 8.5t11.5 3.5q16 0 17.5 -12t-4.5 -18q-26 -38 -84 -74t-83 -44h-2q59 -172 154 -172z" />
    <glyph glyph-name="O" unicode="&#xd3;" horiz-adv-x="1138" 
d="M624 1093q197 0 304 -153t107 -442q0 -226 -59.5 -414t-159 -294t-215.5 -106q-95 0 -161 64.5t-105 171.5h-2q-14 5 -35.5 18t-58 48t-65 80.5t-50.5 122t-22 167.5q0 157 49 298t125.5 235t168.5 149t179 55zM643 -260q53 0 112.5 60.5t109.5 160t83 242.5t33 292
q0 108 -22.5 206t-65 175t-109 123t-148.5 46q-45 0 -102.5 -29.5t-117.5 -90t-109.5 -141t-81.5 -193.5t-32 -236q0 -76 15.5 -144.5t37 -111t38.5 -67t26 -30.5q-34 141 -34 278q0 135 26.5 247t76 178.5t111.5 66.5q49 0 49 -22q0 -8 -3.5 -12.5t-8.5 -7.5t-6 -4
q-86 -150 -86 -456q0 -173 43 -322l1 1q19 6 68 34.5t75 58.5q1 1 4 6t7.5 8.5t11.5 3.5q16 0 17.5 -12t-4.5 -18q-26 -38 -84 -74t-83 -44h-2q59 -172 154 -172z" />
    <glyph glyph-name="O" unicode="&#xd2;" horiz-adv-x="1138" 
d="M624 1093q197 0 304 -153t107 -442q0 -226 -59.5 -414t-159 -294t-215.5 -106q-95 0 -161 64.5t-105 171.5h-2q-14 5 -35.5 18t-58 48t-65 80.5t-50.5 122t-22 167.5q0 157 49 298t125.5 235t168.5 149t179 55zM643 -260q53 0 112.5 60.5t109.5 160t83 242.5t33 292
q0 108 -22.5 206t-65 175t-109 123t-148.5 46q-45 0 -102.5 -29.5t-117.5 -90t-109.5 -141t-81.5 -193.5t-32 -236q0 -76 15.5 -144.5t37 -111t38.5 -67t26 -30.5q-34 141 -34 278q0 135 26.5 247t76 178.5t111.5 66.5q49 0 49 -22q0 -8 -3.5 -12.5t-8.5 -7.5t-6 -4
q-86 -150 -86 -456q0 -173 43 -322l1 1q19 6 68 34.5t75 58.5q1 1 4 6t7.5 8.5t11.5 3.5q16 0 17.5 -12t-4.5 -18q-26 -38 -84 -74t-83 -44h-2q59 -172 154 -172z" />
    <glyph glyph-name="P" unicode="P" horiz-adv-x="1073" 
d="M782 1133q81 0 147 -49t100.5 -124.5t34.5 -158.5q0 -98 -27 -189.5t-73 -163t-105 -134t-124 -106.5t-130.5 -75.5t-123 -47t-102.5 -15.5h-2q3 -77 8 -163.5t8 -137.5t3 -58q0 -27 -10 -42t-41 -15q-39 0 -55 84q-21 102 -42 328l-10 2q-11 1 -17.5 2.5t-20 4.5
t-23 7.5t-22 10.5t-21 14.5t-16.5 19t-12 24.5t-4 30q0 32 17.5 61t46 48.5t41 26.5t25.5 13q-3 81 -3 169t8 217.5t16 214.5t10 97q5 33 19 47t45 14q44 0 70 -14.5t26 -39.5q0 -27 -14 -136t-22 -203l16 40t21.5 51.5t29.5 64t36 64t44 66.5t50 57.5t59 50t65.5 30.5
t73.5 13zM243 118h1q-5 59 -10 163q-9 -5 -22.5 -14.5t-29 -30.5t-15.5 -43q0 -13 3.5 -24t10 -18.5t13 -13t15.5 -9t14.5 -5.5t12 -3.5t7.5 -1.5zM375 122q65 10 134.5 39t145.5 85.5t135 131.5t97.5 187.5t38.5 243.5q0 60 -12.5 118.5t-42.5 103t-70 44.5q-76 0 -153 -73
t-132 -178.5t-93 -212t-50 -185.5q-2 -52 -2 -81q50 -1 84.5 -23t34.5 -65q0 -25 -19 -25q-9 0 -13.5 4.5t-7 15t-2.5 11.5q-16 41 -74 41h-3v-2q0 -58 4 -180z" />
    <glyph glyph-name="Q" unicode="Q" horiz-adv-x="1093" 
d="M1005 -161q70 0 110 -28t40 -61q0 -10 -7.5 -21.5t-20.5 -11.5q-9 -2 -17 6q-6 6 -6 16q0 4 2.5 10.5t2.5 8.5q0 11 -25.5 18.5t-59.5 7.5q-76 0 -158 -20t-153 -48t-140.5 -56.5t-143 -48.5t-136.5 -20q-30 0 -60.5 13t-30.5 29q0 17 15 17q1 0 21 -7.5t39 -7.5
q80 0 216 50q-1 0 -2 0.5t-2 0.5q-67 27 -125.5 111t-91.5 212q-75 56 -122.5 152.5t-47.5 231.5q0 93 19 188.5t60.5 187t99 162.5t141.5 114.5t182 43.5q87 0 155.5 -36.5t110 -93.5t68.5 -136t37.5 -155.5t10.5 -159.5q0 -232 -63 -433t-120 -267q-8 -8 -16 -12
q131 43 218 43zM657 -252q73 38 136 156.5t98.5 272.5t35.5 301q0 234 -95 394.5t-216 160.5q-81 0 -159 -56t-135.5 -146.5t-92.5 -209t-35 -237.5q0 -141 56 -253q-9 75 -9 151q0 57 5 119.5t13 114.5t15 92t13.5 70t6.5 31q10 60 71 60q36 0 56.5 -11t20.5 -29
q0 -5 -14 -76.5t-28 -181.5t-14 -208q0 -140 35 -280q14 -2 20 -2q24 0 32 2q1 0 11.5 5t13.5 5q20 0 20 -17q0 -11 -18.5 -21.5t-53.5 -10.5q-2 0 -6.5 0.5t-7.5 0.5q30 -98 73 -155t92 -57q18 0 31 4q5 2 14.5 5.5t14.5 5.5z" />
    <glyph glyph-name="R" unicode="R" horiz-adv-x="976" 
d="M1060 479q28 0 18 -31q0 -1 -3 -9q-97 -342 -236 -520q-112 -144 -234 -144q-38 0 -76 13t-67 30t-61.5 46.5t-51 49.5t-43.5 53.5t-32 43.5t-22 34q3 -70 7.5 -148t7 -122.5t2.5 -51.5q0 -27 -10 -42t-41 -15q-38 0 -54 84q-8 44 -19.5 118.5t-27 264.5t-15.5 378
q0 88 8.5 217.5t16.5 214t10 96.5q6 33 19.5 47.5t44.5 14.5q43 0 69 -15t26 -40q0 -24 -18.5 -173.5t-26.5 -305.5q17 60 46.5 134t76 164t109 149.5t125.5 59.5q59 0 107.5 -27.5t77.5 -73t44.5 -100.5t15.5 -114q0 -119 -50 -236.5t-129 -204t-182 -140t-205 -53.5
q9 -17 25.5 -44.5t51.5 -77t72 -88.5t85.5 -69t92.5 -30q52 0 105.5 41t97.5 108.5t81.5 139.5t67 149.5t45.5 122t25 72.5q2 6 2 7q9 23 22 23zM249 167q123 0 231 78t172 211.5t64 287.5q0 86 -26.5 178.5t-66.5 92.5q-75 0 -164 -135t-149.5 -336.5t-60.5 -376.5z" />
    <glyph glyph-name="S" unicode="S" horiz-adv-x="1081" 
d="M615 448q21 -6 47 -15.5t71.5 -28.5t85 -45.5t77 -59.5t60 -77.5t22.5 -92.5q0 -100 -71.5 -202.5t-191 -170t-244.5 -67.5q-148 0 -241 78.5t-93 198.5q0 131 93.5 226.5t214.5 95.5q40 0 67.5 -8.5t44 -27t24 -35.5t16.5 -47q3 -9 -2 -16q-5 -6 -14 -6q-14 0 -21 18
q-8 22 -14 33.5t-17.5 25t-28 19t-41.5 5.5q-87 0 -161.5 -72t-74.5 -181q0 -103 62.5 -167t133.5 -64q101 0 197 57.5t155 148t59 182.5q0 32 -8 58.5t-18.5 45.5t-33.5 36.5t-39.5 27.5t-50.5 22.5t-53.5 18.5t-61.5 17.5t-62 17.5q-71 21 -117.5 37t-105.5 44.5t-94 59.5
t-59.5 77.5t-24.5 101.5q0 101 68 190t173.5 140t216.5 51q140 0 219 -63t79 -166q0 -59 -18.5 -109.5t-34.5 -70.5t-24 -25q-15 -9 -27.5 1t-0.5 25q45 55 45 167q0 20 -3 39.5t-12 41.5t-23 38t-38 26.5t-55 10.5q-90 0 -183.5 -49t-156.5 -130.5t-63 -166.5
q0 -33 11.5 -60.5t34 -47t47 -33.5t61.5 -26t65 -19t68.5 -17t63.5 -16z" />
    <glyph glyph-name="T" unicode="T" horiz-adv-x="823" 
d="M959 1135q73 0 124.5 -5.5t95 -19.5t65 -41.5t21.5 -68.5q0 -34 -17.5 -56t-36.5 -22q-12 0 -17.5 16t6.5 21q24 11 24 44q0 37 -71.5 58.5t-206.5 21.5q-112 -2 -221 -18q6 -20 1 -43q-48 -276 -48 -705q0 -171 6 -310.5t12.5 -210t6.5 -72.5q0 -56 -53 -56
q-30 0 -46 53q-8 25 -23 119.5t-31.5 286.5t-16.5 382q0 143 33 528v2q-218 -38 -300 -38q-79 0 -121.5 31.5t-42.5 76.5q0 19 10 39t24 20q10 0 18 -10.5t0 -22.5q-9 -18 -12 -38q0 -3 1.5 -8.5t9 -14t19.5 -15.5t35.5 -12t54.5 -5q70 0 324 46q18 15 66 15h16
q185 32 291 32z" />
    <glyph glyph-name="U" unicode="U" horiz-adv-x="1032" 
d="M1116 483q19 0 19 -23q0 -11 -9 -77t-29.5 -168t-47.5 -198t-69 -164.5t-89 -68.5q-90 0 -139.5 152.5t-49.5 425.5q0 68 6 214q-2 -12 -4 -19q-1 -2 -16 -62t-35 -132t-49 -167.5t-63 -182t-71.5 -162t-81 -120.5t-84.5 -45q-54 0 -94.5 57t-63.5 155t-33.5 210.5
t-10.5 240.5q0 121 9 244t17 183t13 84q1 3 2.5 15t3 17.5t6.5 15t11.5 14t19 8.5t29.5 4q19 0 37 -4.5t35.5 -22t17.5 -46.5q0 -7 -24 -260.5t-24 -361.5q0 -50 2 -108t8.5 -145t22.5 -155t40 -91q176 146 404 1184q6 59 8 68q0 2 2 16.5t5.5 24t10.5 21.5t21 18.5t34 6.5
q33 0 55.5 -13.5t22.5 -36.5q0 -4 -13.5 -121t-26.5 -295.5t-13 -333.5q0 -368 74 -447q17 11 35 44t33.5 77.5t30.5 99.5t27.5 108.5t23 106.5t17.5 91.5t12 66.5l5 28q0 1 1 5t1.5 5.5t1 4.5t1.5 4.5t2.5 4t3 3t4 1.5t5.5 1z" />
    <glyph glyph-name="U" unicode="&#xdc;" horiz-adv-x="1032" 
d="M1116 483q19 0 19 -23q0 -11 -9 -77t-29.5 -168t-47.5 -198t-69 -164.5t-89 -68.5q-90 0 -139.5 152.5t-49.5 425.5q0 68 6 214q-2 -12 -4 -19q-1 -2 -16 -62t-35 -132t-49 -167.5t-63 -182t-71.5 -162t-81 -120.5t-84.5 -45q-54 0 -94.5 57t-63.5 155t-33.5 210.5
t-10.5 240.5q0 121 9 244t17 183t13 84q1 3 2.5 15t3 17.5t6.5 15t11.5 14t19 8.5t29.5 4q19 0 37 -4.5t35.5 -22t17.5 -46.5q0 -7 -24 -260.5t-24 -361.5q0 -50 2 -108t8.5 -145t22.5 -155t40 -91q176 146 404 1184q6 59 8 68q0 2 2 16.5t5.5 24t10.5 21.5t21 18.5t34 6.5
q33 0 55.5 -13.5t22.5 -36.5q0 -4 -13.5 -121t-26.5 -295.5t-13 -333.5q0 -368 74 -447q17 11 35 44t33.5 77.5t30.5 99.5t27.5 108.5t23 106.5t17.5 91.5t12 66.5l5 28q0 1 1 5t1.5 5.5t1 4.5t1.5 4.5t2.5 4t3 3t4 1.5t5.5 1z" />
    <glyph glyph-name="U" unicode="&#xdb;" horiz-adv-x="1032" 
d="M1116 483q19 0 19 -23q0 -11 -9 -77t-29.5 -168t-47.5 -198t-69 -164.5t-89 -68.5q-90 0 -139.5 152.5t-49.5 425.5q0 68 6 214q-2 -12 -4 -19q-1 -2 -16 -62t-35 -132t-49 -167.5t-63 -182t-71.5 -162t-81 -120.5t-84.5 -45q-54 0 -94.5 57t-63.5 155t-33.5 210.5
t-10.5 240.5q0 121 9 244t17 183t13 84q1 3 2.5 15t3 17.5t6.5 15t11.5 14t19 8.5t29.5 4q19 0 37 -4.5t35.5 -22t17.5 -46.5q0 -7 -24 -260.5t-24 -361.5q0 -50 2 -108t8.5 -145t22.5 -155t40 -91q176 146 404 1184q6 59 8 68q0 2 2 16.5t5.5 24t10.5 21.5t21 18.5t34 6.5
q33 0 55.5 -13.5t22.5 -36.5q0 -4 -13.5 -121t-26.5 -295.5t-13 -333.5q0 -368 74 -447q17 11 35 44t33.5 77.5t30.5 99.5t27.5 108.5t23 106.5t17.5 91.5t12 66.5l5 28q0 1 1 5t1.5 5.5t1 4.5t1.5 4.5t2.5 4t3 3t4 1.5t5.5 1z" />
    <glyph glyph-name="U" unicode="&#xda;" horiz-adv-x="1032" 
d="M1116 483q19 0 19 -23q0 -11 -9 -77t-29.5 -168t-47.5 -198t-69 -164.5t-89 -68.5q-90 0 -139.5 152.5t-49.5 425.5q0 68 6 214q-2 -12 -4 -19q-1 -2 -16 -62t-35 -132t-49 -167.5t-63 -182t-71.5 -162t-81 -120.5t-84.5 -45q-54 0 -94.5 57t-63.5 155t-33.5 210.5
t-10.5 240.5q0 121 9 244t17 183t13 84q1 3 2.5 15t3 17.5t6.5 15t11.5 14t19 8.5t29.5 4q19 0 37 -4.5t35.5 -22t17.5 -46.5q0 -7 -24 -260.5t-24 -361.5q0 -50 2 -108t8.5 -145t22.5 -155t40 -91q176 146 404 1184q6 59 8 68q0 2 2 16.5t5.5 24t10.5 21.5t21 18.5t34 6.5
q33 0 55.5 -13.5t22.5 -36.5q0 -4 -13.5 -121t-26.5 -295.5t-13 -333.5q0 -368 74 -447q17 11 35 44t33.5 77.5t30.5 99.5t27.5 108.5t23 106.5t17.5 91.5t12 66.5l5 28q0 1 1 5t1.5 5.5t1 4.5t1.5 4.5t2.5 4t3 3t4 1.5t5.5 1z" />
    <glyph glyph-name="U" unicode="&#xd9;" horiz-adv-x="1032" 
d="M1116 483q19 0 19 -23q0 -11 -9 -77t-29.5 -168t-47.5 -198t-69 -164.5t-89 -68.5q-90 0 -139.5 152.5t-49.5 425.5q0 68 6 214q-2 -12 -4 -19q-1 -2 -16 -62t-35 -132t-49 -167.5t-63 -182t-71.5 -162t-81 -120.5t-84.5 -45q-54 0 -94.5 57t-63.5 155t-33.5 210.5
t-10.5 240.5q0 121 9 244t17 183t13 84q1 3 2.5 15t3 17.5t6.5 15t11.5 14t19 8.5t29.5 4q19 0 37 -4.5t35.5 -22t17.5 -46.5q0 -7 -24 -260.5t-24 -361.5q0 -50 2 -108t8.5 -145t22.5 -155t40 -91q176 146 404 1184q6 59 8 68q0 2 2 16.5t5.5 24t10.5 21.5t21 18.5t34 6.5
q33 0 55.5 -13.5t22.5 -36.5q0 -4 -13.5 -121t-26.5 -295.5t-13 -333.5q0 -368 74 -447q17 11 35 44t33.5 77.5t30.5 99.5t27.5 108.5t23 106.5t17.5 91.5t12 66.5l5 28q0 1 1 5t1.5 5.5t1 4.5t1.5 4.5t2.5 4t3 3t4 1.5t5.5 1z" />
    <glyph glyph-name="V" unicode="V" horiz-adv-x="837" 
d="M979 1093q29 0 29 -27q0 -7 -2 -11t-6.5 -6t-7.5 -2.5t-9 -1t-7 -0.5q-65 -81 -121 -255t-95.5 -357.5t-81.5 -358t-98 -286t-125 -111.5t-126.5 74t-94 195t-64 259.5t-41 284.5t-20 252t-6.5 179q0 9 -0.5 29t0 27t1 22t2.5 20.5t6 15t9.5 13.5t14 8.5t20 6t26.5 1.5
q58 0 77.5 -20.5t19.5 -65.5q0 -46 1 -101.5t6 -201t18 -275t33.5 -271.5t57 -246.5t84.5 -146.5q42 42 83 172t77.5 293.5t75.5 330.5t92 314t112 213q31 34 60 34z" />
    <glyph glyph-name="W" unicode="W" horiz-adv-x="1425" 
d="M1147 1066q93 0 134.5 -98t41.5 -290q0 -27 -3.5 -85.5t-14 -155t-26.5 -196t-44 -203.5t-64 -184.5t-89.5 -131.5t-116.5 -51q-76 0 -138 56t-99 138t-62 183t-34.5 184.5t-9.5 148.5q-14 -48 -32.5 -122t-32 -125.5t-32.5 -114.5t-38 -105.5t-42.5 -80.5t-52.5 -57
t-63 -19q-46 0 -85.5 37.5t-72 115t-51 214t-18.5 318.5q0 276 41 448q8 34 50.5 43.5t79.5 -8t33 -48.5q0 -2 -6 -47.5t-12 -98t-13 -121t-11 -144.5t-4 -140q0 -155 22 -306.5t75 -198.5q33 24 67.5 93t61.5 154t53 183.5t42.5 175t28.5 135.5t12 60q5 83 20.5 113.5
t56.5 30.5q54 0 70.5 -20t14.5 -57q-9 -212 10 -428t72 -375.5t129 -159.5q60 0 122.5 147t102 364t39.5 412q0 168 -33.5 273t-82.5 105q-6 0 -13 -4.5t-11.5 -9.5t-10 -11.5t-6.5 -7.5q-12 -12 -29.5 -2t-2.5 28q8 10 9.5 12t10.5 11t15.5 12.5t17.5 7t24 3.5z" />
    <glyph glyph-name="X" unicode="X" horiz-adv-x="940" 
d="M1004 452q4 13 14.5 16t18.5 -4.5t5 -19.5q0 -1 -1 -7q-64 -371 -167 -581q-91 -185 -194 -185q-94 0 -183.5 125t-164.5 335q-125 -273 -181 -468q-5 -19 -18 -25t-23 4t-7 30q26 177 196 558q-58 186 -95.5 392t-46.5 385q-4 42 36 53.5t82.5 -6.5t44.5 -48
q15 -222 87 -545q102 208 201 377t165 243q22 18 53 5q27 -11 17 -31q-1 -3 -3 -5q-65 -84 -179.5 -281.5t-226.5 -423.5q65 -268 139 -444.5t138 -176.5q20 0 41 20.5t41 55t40.5 81t38.5 98t35.5 107t31.5 107.5t26.5 99t20.5 82t13 56z" />
    <glyph glyph-name="Y" unicode="Y" horiz-adv-x="1054" 
d="M938 254q14 -16 11.5 -25t-11.5 -13t-16 -2l-1 1q-1 1 -2 1q-25 -121 -67.5 -215.5t-93 -153.5t-112 -97.5t-119.5 -53.5t-120 -15q-63 0 -115.5 17.5t-87 45.5t-58 64.5t-34 73t-10.5 71.5q0 118 76.5 209.5t203 140t278.5 48.5q73 0 135 -17q4 74 4 117q0 146 -16 446
q-225 -560 -393 -560q-55 0 -94 34.5t-59 93.5t-28.5 121t-8.5 134q0 145 38 246q7 20 42.5 22t64 -16.5t20.5 -48.5q-6 -23 -15 -100.5t-9 -153.5q0 -232 59 -276q56 25 118 107.5t114.5 193t82 180.5t53.5 133q4 11 5 14v2q-3 35 29 45.5t68 -3t43 -37.5q39 -130 39 -443
q2 -161 -24 -320l9 -9zM420 -262q38 0 80 15.5t89.5 55.5t87 100t71.5 158.5t44 221.5q-64 21 -132 21q-89 0 -176.5 -24t-158.5 -66.5t-114.5 -108t-43.5 -142.5q0 -86 68.5 -158.5t184.5 -72.5z" />
    <glyph glyph-name="Y" unicode="&#x178;" horiz-adv-x="1054" 
d="M938 254q14 -16 11.5 -25t-11.5 -13t-16 -2l-1 1q-1 1 -2 1q-25 -121 -67.5 -215.5t-93 -153.5t-112 -97.5t-119.5 -53.5t-120 -15q-63 0 -115.5 17.5t-87 45.5t-58 64.5t-34 73t-10.5 71.5q0 118 76.5 209.5t203 140t278.5 48.5q73 0 135 -17q4 74 4 117q0 146 -16 446
q-225 -560 -393 -560q-55 0 -94 34.5t-59 93.5t-28.5 121t-8.5 134q0 145 38 246q7 20 42.5 22t64 -16.5t20.5 -48.5q-6 -23 -15 -100.5t-9 -153.5q0 -232 59 -276q56 25 118 107.5t114.5 193t82 180.5t53.5 133q4 11 5 14v2q-3 35 29 45.5t68 -3t43 -37.5q39 -130 39 -443
q2 -161 -24 -320l9 -9zM420 -262q38 0 80 15.5t89.5 55.5t87 100t71.5 158.5t44 221.5q-64 21 -132 21q-89 0 -176.5 -24t-158.5 -66.5t-114.5 -108t-43.5 -142.5q0 -86 68.5 -158.5t184.5 -72.5z" />
    <glyph glyph-name="Y" unicode="&#xdd;" horiz-adv-x="1054" 
d="M938 254q14 -16 11.5 -25t-11.5 -13t-16 -2l-1 1q-1 1 -2 1q-25 -121 -67.5 -215.5t-93 -153.5t-112 -97.5t-119.5 -53.5t-120 -15q-63 0 -115.5 17.5t-87 45.5t-58 64.5t-34 73t-10.5 71.5q0 118 76.5 209.5t203 140t278.5 48.5q73 0 135 -17q4 74 4 117q0 146 -16 446
q-225 -560 -393 -560q-55 0 -94 34.5t-59 93.5t-28.5 121t-8.5 134q0 145 38 246q7 20 42.5 22t64 -16.5t20.5 -48.5q-6 -23 -15 -100.5t-9 -153.5q0 -232 59 -276q56 25 118 107.5t114.5 193t82 180.5t53.5 133q4 11 5 14v2q-3 35 29 45.5t68 -3t43 -37.5q39 -130 39 -443
q2 -161 -24 -320l9 -9zM420 -262q38 0 80 15.5t89.5 55.5t87 100t71.5 158.5t44 221.5q-64 21 -132 21q-89 0 -176.5 -24t-158.5 -66.5t-114.5 -108t-43.5 -142.5q0 -86 68.5 -158.5t184.5 -72.5z" />
    <glyph glyph-name="Z" unicode="Z" horiz-adv-x="933" 
d="M745 -181q77 0 116.5 -24t39.5 -61t-27 -37q-12 -2 -22 8q-9 9 -9 22q0 37 -64 37q-78 0 -183 -24.5t-194.5 -49t-128.5 -24.5q-74 0 -122.5 27t-48.5 86q0 32 15.5 70.5t32.5 65t40 58t27 38.5q23 39 110.5 136.5t190.5 210.5t204.5 230t169 220t67.5 156q0 37 -65 58
t-152 21q-99 0 -187.5 -15.5t-146.5 -40t-91.5 -53.5t-33.5 -56q0 -28 5 -31q20 -12 12 -26q-8 -16 -33 -1q-37 22 -37 74q0 58 77 109t193 79t235 28q159 0 250.5 -64.5t91.5 -159.5q0 -74 -59.5 -173t-156.5 -204.5t-199 -209t-208.5 -220t-164.5 -204.5q-64 -96 -64 -143
q31 -7 122 14.5t207 47t191 25.5z" />
    <glyph glyph-name="bracketleft" unicode="[" horiz-adv-x="466" 
d="M345 38q9 0 16.5 -9t-1.5 -19q-33 -28 -93 -28q-28 0 -56 11t-39 26q-70 93 -70 539q0 456 78 528q29 27 80 27q41 0 68 -8q15 -5 19 -15t-2.5 -18t-20.5 -8q-23 0 -35 -1q-22 -4 -35 -172t-13 -414q0 -380 24 -428q18 -18 39 -18q16 0 27 3.5t14 3.5z" />
    <glyph glyph-name="backslash" unicode="\" horiz-adv-x="679" 
d="M574 37q10 -53 -30 -53q-20 0 -35.5 12t-19.5 26q-51 183 -192 551.5t-190 463.5q-14 27 11.5 51t58.5 24t53 -27q88 -179 194 -491t150 -557z" />
    <glyph glyph-name="bracketright" unicode="]" horiz-adv-x="466" 
d="M288 1087q77 -71 77 -528q0 -446 -70 -539q-11 -15 -38.5 -26t-55.5 -11q-60 0 -93 28q-9 11 -1.5 19.5t16.5 8.5q3 0 14 -4t27 -4q20 0 39 19q23 46 23 428q0 248 -12.5 414.5t-34.5 170.5q-24 2 -36 2q-14 0 -20.5 8t-2 17.5t19.5 14.5q30 9 67 9q52 0 81 -27z" />
    <glyph glyph-name="asciicircum" unicode="^" horiz-adv-x="522" 
d="M411 909q14 -19 7 -32.5t-24 -14t-31 6.5q-14 9 -34 38.5t-38 59.5t-20 33l-20 -40t-28 -55.5t-15 -28.5q-17 -22 -63 -13q-40 8 -43 28q-1 7 4 14q104 162 112 179q13 29 45 29q45 0 62 -37q65 -137 86 -167z" />
    <glyph glyph-name="underscore" unicode="_" horiz-adv-x="712" 
d="M553 53q56 0 56 -32q0 -28 -34 -28q-6 0 -88.5 -3.5t-185.5 -7t-159 -3.5q-17 2 -29 15t-11 30q0 13 9.5 20.5t19 8.5t26.5 1q24 0 203.5 -0.5t192.5 -0.5z" />
    <glyph glyph-name="grave" unicode="`" horiz-adv-x="415" 
d="M309 924q13 -21 -5.5 -42t-57.5 -21q-36 0 -56 29q-9 13 -46 78t-40 73q-8 27 21.5 43.5t68 15.5t54.5 -18q3 -6 30 -79t31 -79z" />
    <glyph glyph-name="a" unicode="a" horiz-adv-x="544" 
d="M626 480q8 0 14.5 -6t6.5 -18t-15.5 -82.5t-41.5 -161.5t-70 -162.5t-91 -71.5t-80 41t-47 101t-19.5 102t-5.5 68q-13 -30 -28 -84.5t-25.5 -89t-33.5 -62t-56 -27.5q-55 0 -94.5 79.5t-39.5 181.5q0 117 57 196t145 79q43 0 88 -27v4q0 16 14.5 33t50.5 17q71 0 71 -49
q0 -6 -6 -58t-12.5 -123t-6.5 -125q0 -215 42 -215q35 0 96 182.5t67 255.5q1 9 7 15.5t13 6.5zM152 101q12 18 25.5 52.5t25 71.5t24 83t20 77.5t15.5 65.5t9 37q-6 7 -20 14.5t-22 7.5q-7 0 -18.5 -12t-24.5 -35.5t-24.5 -54t-19 -72.5t-7.5 -85q0 -90 17 -150z" />
    <glyph glyph-name="a" unicode="&#xe5;" horiz-adv-x="544" 
d="M626 480q8 0 14.5 -6t6.5 -18t-15.5 -82.5t-41.5 -161.5t-70 -162.5t-91 -71.5t-80 41t-47 101t-19.5 102t-5.5 68q-13 -30 -28 -84.5t-25.5 -89t-33.5 -62t-56 -27.5q-55 0 -94.5 79.5t-39.5 181.5q0 117 57 196t145 79q43 0 88 -27v4q0 16 14.5 33t50.5 17q71 0 71 -49
q0 -6 -6 -58t-12.5 -123t-6.5 -125q0 -215 42 -215q35 0 96 182.5t67 255.5q1 9 7 15.5t13 6.5zM152 101q12 18 25.5 52.5t25 71.5t24 83t20 77.5t15.5 65.5t9 37q-6 7 -20 14.5t-22 7.5q-7 0 -18.5 -12t-24.5 -35.5t-24.5 -54t-19 -72.5t-7.5 -85q0 -90 17 -150z" />
    <glyph glyph-name="a" unicode="&#xe4;" horiz-adv-x="544" 
d="M626 480q8 0 14.5 -6t6.5 -18t-15.5 -82.5t-41.5 -161.5t-70 -162.5t-91 -71.5t-80 41t-47 101t-19.5 102t-5.5 68q-13 -30 -28 -84.5t-25.5 -89t-33.5 -62t-56 -27.5q-55 0 -94.5 79.5t-39.5 181.5q0 117 57 196t145 79q43 0 88 -27v4q0 16 14.5 33t50.5 17q71 0 71 -49
q0 -6 -6 -58t-12.5 -123t-6.5 -125q0 -215 42 -215q35 0 96 182.5t67 255.5q1 9 7 15.5t13 6.5zM152 101q12 18 25.5 52.5t25 71.5t24 83t20 77.5t15.5 65.5t9 37q-6 7 -20 14.5t-22 7.5q-7 0 -18.5 -12t-24.5 -35.5t-24.5 -54t-19 -72.5t-7.5 -85q0 -90 17 -150z" />
    <glyph glyph-name="a" unicode="&#xe3;" horiz-adv-x="544" 
d="M626 480q8 0 14.5 -6t6.5 -18t-15.5 -82.5t-41.5 -161.5t-70 -162.5t-91 -71.5t-80 41t-47 101t-19.5 102t-5.5 68q-13 -30 -28 -84.5t-25.5 -89t-33.5 -62t-56 -27.5q-55 0 -94.5 79.5t-39.5 181.5q0 117 57 196t145 79q43 0 88 -27v4q0 16 14.5 33t50.5 17q71 0 71 -49
q0 -6 -6 -58t-12.5 -123t-6.5 -125q0 -215 42 -215q35 0 96 182.5t67 255.5q1 9 7 15.5t13 6.5zM152 101q12 18 25.5 52.5t25 71.5t24 83t20 77.5t15.5 65.5t9 37q-6 7 -20 14.5t-22 7.5q-7 0 -18.5 -12t-24.5 -35.5t-24.5 -54t-19 -72.5t-7.5 -85q0 -90 17 -150z" />
    <glyph glyph-name="a" unicode="&#xe2;" horiz-adv-x="544" 
d="M626 480q8 0 14.5 -6t6.5 -18t-15.5 -82.5t-41.5 -161.5t-70 -162.5t-91 -71.5t-80 41t-47 101t-19.5 102t-5.5 68q-13 -30 -28 -84.5t-25.5 -89t-33.5 -62t-56 -27.5q-55 0 -94.5 79.5t-39.5 181.5q0 117 57 196t145 79q43 0 88 -27v4q0 16 14.5 33t50.5 17q71 0 71 -49
q0 -6 -6 -58t-12.5 -123t-6.5 -125q0 -215 42 -215q35 0 96 182.5t67 255.5q1 9 7 15.5t13 6.5zM152 101q12 18 25.5 52.5t25 71.5t24 83t20 77.5t15.5 65.5t9 37q-6 7 -20 14.5t-22 7.5q-7 0 -18.5 -12t-24.5 -35.5t-24.5 -54t-19 -72.5t-7.5 -85q0 -90 17 -150z" />
    <glyph glyph-name="a" unicode="&#xe1;" horiz-adv-x="544" 
d="M626 480q8 0 14.5 -6t6.5 -18t-15.5 -82.5t-41.5 -161.5t-70 -162.5t-91 -71.5t-80 41t-47 101t-19.5 102t-5.5 68q-13 -30 -28 -84.5t-25.5 -89t-33.5 -62t-56 -27.5q-55 0 -94.5 79.5t-39.5 181.5q0 117 57 196t145 79q43 0 88 -27v4q0 16 14.5 33t50.5 17q71 0 71 -49
q0 -6 -6 -58t-12.5 -123t-6.5 -125q0 -215 42 -215q35 0 96 182.5t67 255.5q1 9 7 15.5t13 6.5zM152 101q12 18 25.5 52.5t25 71.5t24 83t20 77.5t15.5 65.5t9 37q-6 7 -20 14.5t-22 7.5q-7 0 -18.5 -12t-24.5 -35.5t-24.5 -54t-19 -72.5t-7.5 -85q0 -90 17 -150z" />
    <glyph glyph-name="a" unicode="&#xe0;" horiz-adv-x="544" 
d="M626 480q8 0 14.5 -6t6.5 -18t-15.5 -82.5t-41.5 -161.5t-70 -162.5t-91 -71.5t-80 41t-47 101t-19.5 102t-5.5 68q-13 -30 -28 -84.5t-25.5 -89t-33.5 -62t-56 -27.5q-55 0 -94.5 79.5t-39.5 181.5q0 117 57 196t145 79q43 0 88 -27v4q0 16 14.5 33t50.5 17q71 0 71 -49
q0 -6 -6 -58t-12.5 -123t-6.5 -125q0 -215 42 -215q35 0 96 182.5t67 255.5q1 9 7 15.5t13 6.5zM152 101q12 18 25.5 52.5t25 71.5t24 83t20 77.5t15.5 65.5t9 37q-6 7 -20 14.5t-22 7.5q-7 0 -18.5 -12t-24.5 -35.5t-24.5 -54t-19 -72.5t-7.5 -85q0 -90 17 -150z" />
    <glyph glyph-name="b" unicode="b" horiz-adv-x="606" 
d="M697 484q15 0 21.5 -12.5t-1.5 -26.5q-52 -95 -200 -175q-9 -83 -41.5 -153.5t-94 -119t-139.5 -48.5q-58 0 -86.5 28.5t-28.5 66.5v4q-34 0 -57 56q-70 172 -70 379q0 126 26 242.5t67 198t93 130t103 48.5q49 0 72.5 -27t23.5 -86q0 -145 -82 -280.5t-158 -183.5
q-6 -61 -6 -116q0 -27 3 -64q1 2 3 7q12 29 21 47.5t28.5 53t38 56t45.5 38.5t54 17q86 0 137 -73.5t51 -161.5v-3q108 65 155 137q13 21 22 21zM307 1038q-55 -54 -96 -182t-60 -275l1 2q14 14 38 46t57 84.5t56 120.5t23 129q0 51 -19 75zM223 -6q57 0 103 56.5t65 162.5
h-1l-18 -5q-19 -6 -33.5 -11t-38.5 -15t-42 -22.5t-35.5 -28t-27 -36.5t-9.5 -45q0 -22 8.5 -39t28.5 -17zM398 264q3 35 3 73q0 171 -51 171q-42 0 -84.5 -55.5t-70.5 -132.5t-36 -148q0 -4 0.5 -14t1.5 -13v-3q10 13 23 24t31.5 21.5t30.5 17.5t37.5 17t35.5 14t41 15
t37 13h1z" />
    <glyph glyph-name="c" unicode="c" horiz-adv-x="440" 
d="M521 487q11 0 18 -8t3 -25q-3 -14 -13.5 -46.5t-31.5 -91.5t-51 -117.5t-66.5 -112.5t-84.5 -88t-98 -34q-87 0 -142 99t-55 220q0 141 67.5 229t146.5 88q47 0 72 -30.5t25 -70.5q0 -18 -8 -36t-22 -18q-23 0 -23 17q0 1 2.5 9.5t2.5 13.5q0 37 -28 62
q-42 -32 -67.5 -121t-25.5 -187q0 -66 12.5 -120.5t29 -81.5t32.5 -27q41 0 91 58t89 135t67 150.5t31 107.5q1 11 9 18.5t18 7.5z" />
    <glyph glyph-name="c" unicode="&#xe7;" horiz-adv-x="440" 
d="M521 487q11 0 18 -8t3 -25q-3 -14 -13.5 -46.5t-31.5 -91.5t-51 -117.5t-66.5 -112.5t-84.5 -88t-98 -34q-87 0 -142 99t-55 220q0 141 67.5 229t146.5 88q47 0 72 -30.5t25 -70.5q0 -18 -8 -36t-22 -18q-23 0 -23 17q0 1 2.5 9.5t2.5 13.5q0 37 -28 62
q-42 -32 -67.5 -121t-25.5 -187q0 -66 12.5 -120.5t29 -81.5t32.5 -27q41 0 91 58t89 135t67 150.5t31 107.5q1 11 9 18.5t18 7.5z" />
    <glyph glyph-name="d" unicode="d" horiz-adv-x="647" 
d="M729 481q10 0 17 -8t4 -26t-9 -50t-20.5 -100.5t-34.5 -130.5t-45.5 -123t-60 -98t-71.5 -37q-41 0 -74 36.5t-52 87t-31.5 109t-16.5 97t-4 57.5q-9 -21 -28 -79t-34 -98t-47 -74.5t-73 -34.5q-61 0 -105 86.5t-44 198.5q0 118 61.5 203t177.5 85q55 0 98 -26v4
q0 33 10.5 94.5t34 140t55 148t80 117t103.5 47.5q84 0 84 -81q0 -61 -20 -128t-48 -118.5t-60 -97.5t-53.5 -70.5t-30.5 -32.5l-1 -1l-1 -1q-23 -138 -23 -272q0 -85 15 -205t44 -143q47 21 109 204t70 284q3 36 24 36zM638 1028q-33 -43 -69 -140t-61 -217q0 1 1 2.5
t2 2.5q19 25 45 67t56.5 115t30.5 126q0 34 -5 44zM169 65q66 54 152 438q-6 8 -20.5 15.5t-27.5 7.5q-47 0 -90.5 -91t-43.5 -198q0 -117 30 -172z" />
    <glyph glyph-name="e" unicode="e" horiz-adv-x="413" 
d="M496 470q12 0 18.5 -9.5t0.5 -28.5q0 -1 -2 -8q-88 -305 -198 -404q-44 -39 -89 -39q-94 0 -160 92.5t-66 213.5q0 72 23.5 139t73 113.5t115.5 46.5q44 0 70 -28t26 -70q0 -76 -48 -131.5t-107 -63.5h-1q-3 -27 -3 -54q0 -80 27.5 -147t62.5 -67q37 0 88.5 80.5
t90 177.5t51.5 163q4 24 27 24zM233 523q-53 -60 -75 -184l1 1h2q33 12 61.5 54.5t28.5 85.5q0 29 -18 43z" />
    <glyph glyph-name="e" unicode="&#xeb;" horiz-adv-x="413" 
d="M496 470q12 0 18.5 -9.5t0.5 -28.5q0 -1 -2 -8q-88 -305 -198 -404q-44 -39 -89 -39q-94 0 -160 92.5t-66 213.5q0 72 23.5 139t73 113.5t115.5 46.5q44 0 70 -28t26 -70q0 -76 -48 -131.5t-107 -63.5h-1q-3 -27 -3 -54q0 -80 27.5 -147t62.5 -67q37 0 88.5 80.5
t90 177.5t51.5 163q4 24 27 24zM233 523q-53 -60 -75 -184l1 1h2q33 12 61.5 54.5t28.5 85.5q0 29 -18 43z" />
    <glyph glyph-name="e" unicode="&#xea;" horiz-adv-x="413" 
d="M496 470q12 0 18.5 -9.5t0.5 -28.5q0 -1 -2 -8q-88 -305 -198 -404q-44 -39 -89 -39q-94 0 -160 92.5t-66 213.5q0 72 23.5 139t73 113.5t115.5 46.5q44 0 70 -28t26 -70q0 -76 -48 -131.5t-107 -63.5h-1q-3 -27 -3 -54q0 -80 27.5 -147t62.5 -67q37 0 88.5 80.5
t90 177.5t51.5 163q4 24 27 24zM233 523q-53 -60 -75 -184l1 1h2q33 12 61.5 54.5t28.5 85.5q0 29 -18 43z" />
    <glyph glyph-name="e" unicode="&#xe9;" horiz-adv-x="413" 
d="M496 470q12 0 18.5 -9.5t0.5 -28.5q0 -1 -2 -8q-88 -305 -198 -404q-44 -39 -89 -39q-94 0 -160 92.5t-66 213.5q0 72 23.5 139t73 113.5t115.5 46.5q44 0 70 -28t26 -70q0 -76 -48 -131.5t-107 -63.5h-1q-3 -27 -3 -54q0 -80 27.5 -147t62.5 -67q37 0 88.5 80.5
t90 177.5t51.5 163q4 24 27 24zM233 523q-53 -60 -75 -184l1 1h2q33 12 61.5 54.5t28.5 85.5q0 29 -18 43z" />
    <glyph glyph-name="e" unicode="&#xe8;" horiz-adv-x="413" 
d="M496 470q12 0 18.5 -9.5t0.5 -28.5q0 -1 -2 -8q-88 -305 -198 -404q-44 -39 -89 -39q-94 0 -160 92.5t-66 213.5q0 72 23.5 139t73 113.5t115.5 46.5q44 0 70 -28t26 -70q0 -76 -48 -131.5t-107 -63.5h-1q-3 -27 -3 -54q0 -80 27.5 -147t62.5 -67q37 0 88.5 80.5
t90 177.5t51.5 163q4 24 27 24zM233 523q-53 -60 -75 -184l1 1h2q33 12 61.5 54.5t28.5 85.5q0 29 -18 43z" />
    <glyph glyph-name="f" unicode="f" horiz-adv-x="452" 
d="M534 480q13 0 18 -10t2 -21q-10 -42 -46 -90.5t-79 -85.5t-77.5 -62.5t-50.5 -32.5h-1l-2 -1q43 -51 43 -176q0 -58 -8 -104t-33.5 -81t-65.5 -35q-35 0 -63.5 29.5t-47 79.5t-30 100.5t-19.5 108.5q-1 0 -2.5 -0.5t-2.5 -0.5h-8.5h-12t-13 0.5t-13.5 2.5t-10.5 4.5
t-8.5 7.5t-3 12q0 27 22.5 49.5t38.5 26.5l3 1q-2 42 -2 44q0 211 34.5 395t102.5 301t155 117q59 0 85 -29t26 -87q0 -85 -33.5 -183t-78.5 -171.5t-86.5 -125t-62.5 -62.5l-1 -1q-14 -123 -14 -160v-14q48 -7 73 -21l2 1q66 32 150 113.5t102 144.5q1 6 7 11t11 5z
M384 995q-114 -126 -172 -530v1l1 1q13 15 37 49.5t63 99t66 145.5t27 152q0 57 -22 82zM189 175q0 -4 2 -4q4 0 5 4h-7zM245 -172q21 18 31.5 65t10.5 82q0 63 -14 111t-31 59l-1 1q-24 -13 -52 -22q0 -1 -1 -1q5 -238 57 -295z" />
    <glyph glyph-name="g" unicode="g" horiz-adv-x="630" 
d="M712 489q14 0 19 -10t1 -23q-51 -169 -219 -339v-5q0 -104 -14 -202.5t-49 -194.5t-87 -167t-133.5 -115t-183.5 -44q-114 0 -189 68.5t-75 178.5q0 66 36 119.5t91 86t125 61.5t133.5 48t122 43.5t85.5 49.5q-3 198 -19 318q-108 -323 -225 -323q-56 0 -103.5 66
t-47.5 189q0 111 69 191t174 80q69 0 116 -29v3q3 38 50 38q23 0 39 -5.5t25 -17.5t13 -21.5t8 -26.5q9 -34 22 -130.5t16 -202.5q119 134 182 300q7 16 18 16zM141 87q94 62 194 395q-9 9 -36 20t-44 11q-59 0 -105 -84.5t-46 -209.5q0 -100 37 -132zM56 -553
q66 0 120 30.5t90.5 82.5t62 121.5t36.5 145.5t11 158v12q-41 -29 -115 -57t-141 -50.5t-130.5 -52t-102 -76t-38.5 -107.5q0 -87 60 -147t147 -60z" />
    <glyph glyph-name="h" unicode="h" horiz-adv-x="575" 
d="M658 484q21 0 21 -28q0 -30 -19.5 -109t-50.5 -168.5t-78.5 -157.5t-95.5 -68q-141 0 -141 328q0 48 3 99.5t7 99.5l5 47q-47 -53 -90.5 -180t-59.5 -244q1 -11 3 -15q4 -22 -7 -38t-42 -16q-41 0 -54 46q-9 32 -20.5 81.5t-25 150t-13.5 187.5q0 165 45 314t118 238
t152 89q50 0 76.5 -30t26.5 -78q0 -121 -93.5 -273.5t-184.5 -215.5q-6 -65 -6 -129q0 -61 6 -147q52 206 107 282q38 53 79 53q115 0 115 -166q0 -48 -9 -150t-9 -140q0 -120 26 -146q22 15 43 43.5t37.5 62t31.5 73.5t26 76.5t20 73.5t14.5 62.5t8.5 44.5l4 20q7 28 24 28
zM340 1081q-149 -172 -193 -476q1 1 5 3q57 43 132.5 178.5t75.5 232.5q0 49 -20 62z" />
    <glyph glyph-name="i" unicode="i" horiz-adv-x="294" 
d="M377 479q24 0 19 -26q-88 -418 -209 -453q-10 -3 -20 -3q-52 0 -91 62.5t-57.5 149.5t-18.5 177q0 60 7 126q1 11 3 19t9 20t22.5 19t38.5 7q34 0 51 -13t17 -31q0 -6 -4 -37.5t-8 -82.5t-4 -104q0 -223 49 -266q21 13 43.5 48.5t40.5 79t35.5 94t28.5 90.5t19.5 70.5
t8.5 31.5q4 12 8 17t12 5zM91 632q-27 0 -46 18t-19 45q0 26 18.5 45t44.5 19t44.5 -18.5t19.5 -44.5t-17.5 -44.5t-44.5 -19.5z" />
    <glyph glyph-name="i" unicode="&#xef;" horiz-adv-x="294" 
d="M377 479q24 0 19 -26q-88 -418 -209 -453q-10 -3 -20 -3q-52 0 -91 62.5t-57.5 149.5t-18.5 177q0 60 7 126q1 11 3 19t9 20t22.5 19t38.5 7q34 0 51 -13t17 -31q0 -6 -4 -37.5t-8 -82.5t-4 -104q0 -223 49 -266q21 13 43.5 48.5t40.5 79t35.5 94t28.5 90.5t19.5 70.5
t8.5 31.5q4 12 8 17t12 5zM91 632q-27 0 -46 18t-19 45q0 26 18.5 45t44.5 19t44.5 -18.5t19.5 -44.5t-17.5 -44.5t-44.5 -19.5z" />
    <glyph glyph-name="i" unicode="&#xee;" horiz-adv-x="294" 
d="M377 479q24 0 19 -26q-88 -418 -209 -453q-10 -3 -20 -3q-52 0 -91 62.5t-57.5 149.5t-18.5 177q0 60 7 126q1 11 3 19t9 20t22.5 19t38.5 7q34 0 51 -13t17 -31q0 -6 -4 -37.5t-8 -82.5t-4 -104q0 -223 49 -266q21 13 43.5 48.5t40.5 79t35.5 94t28.5 90.5t19.5 70.5
t8.5 31.5q4 12 8 17t12 5zM91 632q-27 0 -46 18t-19 45q0 26 18.5 45t44.5 19t44.5 -18.5t19.5 -44.5t-17.5 -44.5t-44.5 -19.5z" />
    <glyph glyph-name="i" unicode="&#xed;" horiz-adv-x="294" 
d="M377 479q24 0 19 -26q-88 -418 -209 -453q-10 -3 -20 -3q-52 0 -91 62.5t-57.5 149.5t-18.5 177q0 60 7 126q1 11 3 19t9 20t22.5 19t38.5 7q34 0 51 -13t17 -31q0 -6 -4 -37.5t-8 -82.5t-4 -104q0 -223 49 -266q21 13 43.5 48.5t40.5 79t35.5 94t28.5 90.5t19.5 70.5
t8.5 31.5q4 12 8 17t12 5zM91 632q-27 0 -46 18t-19 45q0 26 18.5 45t44.5 19t44.5 -18.5t19.5 -44.5t-17.5 -44.5t-44.5 -19.5z" />
    <glyph glyph-name="i" unicode="&#xec;" horiz-adv-x="294" 
d="M377 479q24 0 19 -26q-88 -418 -209 -453q-10 -3 -20 -3q-52 0 -91 62.5t-57.5 149.5t-18.5 177q0 60 7 126q1 11 3 19t9 20t22.5 19t38.5 7q34 0 51 -13t17 -31q0 -6 -4 -37.5t-8 -82.5t-4 -104q0 -223 49 -266q21 13 43.5 48.5t40.5 79t35.5 94t28.5 90.5t19.5 70.5
t8.5 31.5q4 12 8 17t12 5zM91 632q-27 0 -46 18t-19 45q0 26 18.5 45t44.5 19t44.5 -18.5t19.5 -44.5t-17.5 -44.5t-44.5 -19.5z" />
    <glyph glyph-name="j" unicode="j" horiz-adv-x="329" 
d="M412 489q13 0 18 -10t1 -23q-51 -170 -218 -339v-5q0 -104 -14 -202.5t-49 -194.5t-87 -167t-133.5 -115t-183.5 -44q-114 0 -189.5 68.5t-75.5 178.5q0 66 36 119.5t91 86t125.5 61.5t134 48t122 43.5t85.5 49.5q-3 203 -20 321q-17 129 -17 174q3 38 50 38
q23 0 39 -5.5t25 -17.5t13.5 -22t8.5 -26q9 -34 22 -130.5t16 -202.5q119 134 182 300q7 16 18 16zM-244 -553q82 0 145 46t100 124t55.5 171.5t18.5 196.5v12q-41 -29 -115 -57t-141 -50.5t-130.5 -52t-102 -76t-38.5 -107.5q0 -86 61 -147q60 -60 147 -60zM80 627
q-27 0 -46 18.5t-19 45.5q0 26 18.5 44.5t44.5 18.5t44.5 -18t19.5 -44t-17.5 -45t-44.5 -20z" />
    <glyph glyph-name="k" unicode="k" horiz-adv-x="647" 
d="M732 476q9 0 15 -7.5t1 -24.5q-34 -106 -41 -124q-100 -265 -225 -299q-17 -5 -34 -5q-159 0 -255 221q-24 -95 -33 -192q1 -2 1 -6q18 -67 -40 -67q-40 0 -60 59q-61 183 -61 404q0 167 41.5 320t115.5 249.5t160 96.5q112 0 112 -124q0 -86 -53 -190t-119 -177.5
t-116 -98.5q-12 -101 -12 -178q0 -32 4 -90q120 392 259 392q56 0 86 -32t30 -73q0 -51 -30.5 -101t-72 -82.5t-83.5 -52t-68 -17.5q3 -9 12.5 -30t29 -55t42 -63t54 -50.5t62.5 -21.5q43 0 90.5 56.5t86 142.5t54.5 127t26 70q8 23 21 23zM344 1041q-72 -65 -120.5 -189
t-73.5 -275l2 2q70 48 141.5 171.5t71.5 219.5q0 17 -6.5 40.5t-14.5 30.5zM221 330q1 1 2 1q164 66 174 251q-107 -54 -176 -252z" />
    <glyph glyph-name="l" unicode="l" horiz-adv-x="360" 
d="M446 491q11 0 14.5 -5.5t3.5 -22.5q0 -15 -19 -92t-50.5 -175t-83 -174.5t-105.5 -76.5q-57 0 -100 49t-64.5 125t-31.5 149.5t-10 141.5q0 177 39.5 335t104 251.5t136.5 93.5q98 0 98 -115q0 -77 -28.5 -168t-67.5 -161t-75.5 -119.5t-55.5 -60.5h-1q-8 -86 -8 -152
q0 -94 18.5 -199t61.5 -126q30 18 59 60.5t49 91t38.5 105.5t28.5 99.5t18 78.5l8 37q9 30 23 30zM304 1024q-52 -83 -90 -213.5t-56 -272.5l3 3q56 55 108 183.5t52 229.5q0 55 -17 70z" />
    <glyph glyph-name="m" unicode="m" horiz-adv-x="866" 
d="M949 486q21 0 21 -27q0 -13 -20.5 -91t-54 -179t-88.5 -180.5t-112 -79.5q-31 0 -55.5 14.5t-40 35.5t-27 53t-17 58.5t-8.5 60.5t-3.5 51.5t-0.5 38.5q0 33 8 156.5t7 140.5q-49 -58 -87.5 -176t-45.5 -163q-8 -51 -60 -51q-46 0 -56 64q-5 33 -5 280
q-47 -72 -85 -175.5t-53.5 -168t-23.5 -115.5q2 -12 2 -14q1 -12 2.5 -25.5t-9 -23.5t-32.5 -10q-19 0 -33 20t-22 44l-6 18q-7 17 -11 31t-11 45t-11 63.5t-7.5 82t-3.5 105.5q0 179 16 213q17 36 57 36q38 0 60.5 -14t22.5 -36q0 -8 -6 -53t-12 -115t-6 -139
q9 29 11.5 36.5t15 44t20 54t21.5 51.5t26.5 52t28 39t31.5 30.5t32 9.5q18 0 33.5 -5.5t25.5 -12.5t18.5 -20.5t13 -23t8.5 -26.5t5 -24.5t3 -23.5t2 -17q2 4 21 48.5t36 79.5t46 67t56 32q63 0 90 -40.5t27 -122.5q0 -49 -11 -174.5t-11 -190.5q0 -39 1 -57.5t9 -45
t24 -41.5q23 19 46.5 54.5t43.5 78.5t38 90t32.5 92t25 80t17 59t6.5 25t2 7t3 7.5t4 5.5t7 5.5t9 1.5z" />
    <glyph glyph-name="n" unicode="n" horiz-adv-x="620" 
d="M702 486q28 0 18 -34q-9 -29 -21.5 -74t-21.5 -76t-21.5 -72.5t-23.5 -69.5t-24.5 -60.5t-28 -53.5t-31 -39.5t-35.5 -27t-40 -8.5q-35 0 -61.5 25.5t-40.5 69.5t-21 95.5t-7 111.5q0 25 5.5 113t4.5 112v1q-43 -49 -80.5 -124.5t-62.5 -156.5t-37 -128t-21 -88
q2 -8 0.5 -19.5t-4.5 -22t-15 -17.5t-32 -7q-38 0 -58 69q-1 3 -6 20t-8 27.5t-8 32.5t-8 43.5t-6.5 51t-5 65.5t-1.5 76q0 156 13 231q2 14 5 22.5t10 19t20 16t32 5.5q38 0 65 -16t27 -41q0 -7 -15 -123.5t-16 -193.5q2 6 12.5 35t17.5 46t20 49.5t24 53.5t26.5 49.5
t30.5 47t32.5 36t36.5 26t38 8.5q38 0 63 -11.5t35 -34t13 -42t3 -49.5q0 -43 -8 -133t-8 -156q0 -114 19 -148q14 15 29.5 39t30 53t28 61t26 66t23.5 64.5t20 60t15.5 49.5t11.5 36l4 16q7 23 18 23z" />
    <glyph glyph-name="n" unicode="&#xf1;" horiz-adv-x="620" 
d="M702 486q28 0 18 -34q-9 -29 -21.5 -74t-21.5 -76t-21.5 -72.5t-23.5 -69.5t-24.5 -60.5t-28 -53.5t-31 -39.5t-35.5 -27t-40 -8.5q-35 0 -61.5 25.5t-40.5 69.5t-21 95.5t-7 111.5q0 25 5.5 113t4.5 112v1q-43 -49 -80.5 -124.5t-62.5 -156.5t-37 -128t-21 -88
q2 -8 0.5 -19.5t-4.5 -22t-15 -17.5t-32 -7q-38 0 -58 69q-1 3 -6 20t-8 27.5t-8 32.5t-8 43.5t-6.5 51t-5 65.5t-1.5 76q0 156 13 231q2 14 5 22.5t10 19t20 16t32 5.5q38 0 65 -16t27 -41q0 -7 -15 -123.5t-16 -193.5q2 6 12.5 35t17.5 46t20 49.5t24 53.5t26.5 49.5
t30.5 47t32.5 36t36.5 26t38 8.5q38 0 63 -11.5t35 -34t13 -42t3 -49.5q0 -43 -8 -133t-8 -156q0 -114 19 -148q14 15 29.5 39t30 53t28 61t26 66t23.5 64.5t20 60t15.5 49.5t11.5 36l4 16q7 23 18 23z" />
    <glyph glyph-name="o" unicode="o" horiz-adv-x="464" 
d="M562 481q16 0 17.5 -12.5t-7.5 -23.5q-80 -119 -199 -154q-3 -37 -8.5 -72.5t-20 -80.5t-34 -78t-52.5 -56t-75 -23q-79 0 -131 80.5t-52 208.5q0 87 18.5 149t56.5 70q2 11 7.5 24.5t18 35t38 35.5t58.5 14q84 0 131.5 -63t47.5 -192v-1q42 17 85.5 51.5t58.5 51
t25 28.5q6 8 17 8zM206 29q33 0 67 80.5t44 171.5q-7 -1 -23 -1t-31 1t-26 2.5t-22 5t-17.5 5.5t-15 6t-11.5 5.5t-9 5.5t-7 4v1q-10 -57 -10 -104q0 -76 19.5 -129.5t41.5 -53.5zM320 326v2q0 76 -31.5 145t-75.5 69q-24 0 -49 -64q22 -12 22 -32q0 -4 -15 -60
q33 -62 117 -62q22 0 32 2z" />
    <glyph glyph-name="o" unicode="&#xf8;" horiz-adv-x="464" 
d="M562 481q16 0 17.5 -12.5t-7.5 -23.5q-80 -119 -199 -154q-3 -37 -8.5 -72.5t-20 -80.5t-34 -78t-52.5 -56t-75 -23q-79 0 -131 80.5t-52 208.5q0 87 18.5 149t56.5 70q2 11 7.5 24.5t18 35t38 35.5t58.5 14q84 0 131.5 -63t47.5 -192v-1q42 17 85.5 51.5t58.5 51
t25 28.5q6 8 17 8zM206 29q33 0 67 80.5t44 171.5q-7 -1 -23 -1t-31 1t-26 2.5t-22 5t-17.5 5.5t-15 6t-11.5 5.5t-9 5.5t-7 4v1q-10 -57 -10 -104q0 -76 19.5 -129.5t41.5 -53.5zM320 326v2q0 76 -31.5 145t-75.5 69q-24 0 -49 -64q22 -12 22 -32q0 -4 -15 -60
q33 -62 117 -62q22 0 32 2z" />
    <glyph glyph-name="o" unicode="&#xf6;" horiz-adv-x="464" 
d="M562 481q16 0 17.5 -12.5t-7.5 -23.5q-80 -119 -199 -154q-3 -37 -8.5 -72.5t-20 -80.5t-34 -78t-52.5 -56t-75 -23q-79 0 -131 80.5t-52 208.5q0 87 18.5 149t56.5 70q2 11 7.5 24.5t18 35t38 35.5t58.5 14q84 0 131.5 -63t47.5 -192v-1q42 17 85.5 51.5t58.5 51
t25 28.5q6 8 17 8zM206 29q33 0 67 80.5t44 171.5q-7 -1 -23 -1t-31 1t-26 2.5t-22 5t-17.5 5.5t-15 6t-11.5 5.5t-9 5.5t-7 4v1q-10 -57 -10 -104q0 -76 19.5 -129.5t41.5 -53.5zM320 326v2q0 76 -31.5 145t-75.5 69q-24 0 -49 -64q22 -12 22 -32q0 -4 -15 -60
q33 -62 117 -62q22 0 32 2z" />
    <glyph glyph-name="o" unicode="&#xf5;" horiz-adv-x="464" 
d="M562 481q16 0 17.5 -12.5t-7.5 -23.5q-80 -119 -199 -154q-3 -37 -8.5 -72.5t-20 -80.5t-34 -78t-52.5 -56t-75 -23q-79 0 -131 80.5t-52 208.5q0 87 18.5 149t56.5 70q2 11 7.5 24.5t18 35t38 35.5t58.5 14q84 0 131.5 -63t47.5 -192v-1q42 17 85.5 51.5t58.5 51
t25 28.5q6 8 17 8zM206 29q33 0 67 80.5t44 171.5q-7 -1 -23 -1t-31 1t-26 2.5t-22 5t-17.5 5.5t-15 6t-11.5 5.5t-9 5.5t-7 4v1q-10 -57 -10 -104q0 -76 19.5 -129.5t41.5 -53.5zM320 326v2q0 76 -31.5 145t-75.5 69q-24 0 -49 -64q22 -12 22 -32q0 -4 -15 -60
q33 -62 117 -62q22 0 32 2z" />
    <glyph glyph-name="o" unicode="&#xf4;" horiz-adv-x="464" 
d="M562 481q16 0 17.5 -12.5t-7.5 -23.5q-80 -119 -199 -154q-3 -37 -8.5 -72.5t-20 -80.5t-34 -78t-52.5 -56t-75 -23q-79 0 -131 80.5t-52 208.5q0 87 18.5 149t56.5 70q2 11 7.5 24.5t18 35t38 35.5t58.5 14q84 0 131.5 -63t47.5 -192v-1q42 17 85.5 51.5t58.5 51
t25 28.5q6 8 17 8zM206 29q33 0 67 80.5t44 171.5q-7 -1 -23 -1t-31 1t-26 2.5t-22 5t-17.5 5.5t-15 6t-11.5 5.5t-9 5.5t-7 4v1q-10 -57 -10 -104q0 -76 19.5 -129.5t41.5 -53.5zM320 326v2q0 76 -31.5 145t-75.5 69q-24 0 -49 -64q22 -12 22 -32q0 -4 -15 -60
q33 -62 117 -62q22 0 32 2z" />
    <glyph glyph-name="o" unicode="&#xf3;" horiz-adv-x="464" 
d="M562 481q16 0 17.5 -12.5t-7.5 -23.5q-80 -119 -199 -154q-3 -37 -8.5 -72.5t-20 -80.5t-34 -78t-52.5 -56t-75 -23q-79 0 -131 80.5t-52 208.5q0 87 18.5 149t56.5 70q2 11 7.5 24.5t18 35t38 35.5t58.5 14q84 0 131.5 -63t47.5 -192v-1q42 17 85.5 51.5t58.5 51
t25 28.5q6 8 17 8zM206 29q33 0 67 80.5t44 171.5q-7 -1 -23 -1t-31 1t-26 2.5t-22 5t-17.5 5.5t-15 6t-11.5 5.5t-9 5.5t-7 4v1q-10 -57 -10 -104q0 -76 19.5 -129.5t41.5 -53.5zM320 326v2q0 76 -31.5 145t-75.5 69q-24 0 -49 -64q22 -12 22 -32q0 -4 -15 -60
q33 -62 117 -62q22 0 32 2z" />
    <glyph glyph-name="o" unicode="&#xf2;" horiz-adv-x="464" 
d="M562 481q16 0 17.5 -12.5t-7.5 -23.5q-80 -119 -199 -154q-3 -37 -8.5 -72.5t-20 -80.5t-34 -78t-52.5 -56t-75 -23q-79 0 -131 80.5t-52 208.5q0 87 18.5 149t56.5 70q2 11 7.5 24.5t18 35t38 35.5t58.5 14q84 0 131.5 -63t47.5 -192v-1q42 17 85.5 51.5t58.5 51
t25 28.5q6 8 17 8zM206 29q33 0 67 80.5t44 171.5q-7 -1 -23 -1t-31 1t-26 2.5t-22 5t-17.5 5.5t-15 6t-11.5 5.5t-9 5.5t-7 4v1q-10 -57 -10 -104q0 -76 19.5 -129.5t41.5 -53.5zM320 326v2q0 76 -31.5 145t-75.5 69q-24 0 -49 -64q22 -12 22 -32q0 -4 -15 -60
q33 -62 117 -62q22 0 32 2z" />
    <glyph glyph-name="p" unicode="p" horiz-adv-x="694" 
d="M776 489q9 0 17 -8t1 -18q-83 -118 -212 -187q-28 -123 -118.5 -218.5t-188.5 -95.5q-103 0 -103 83q0 40 15 73t37.5 53t54 37t58 26t56.5 19t43 16l1 1h1q17 65 19 139q0 27 -3.5 52t-17 47.5t-34.5 22.5q-45 0 -97 -56t-92 -137.5t-60 -164.5q-13 -188 -13 -448
q0 -47 7.5 -258t7.5 -222q0 -28 -17.5 -50t-51.5 -22q-23 0 -36 23.5t-9 42.5q2 10 -8 86t-21.5 222t-11.5 301q0 133 12 412t17 294q1 2 3 12t5 14.5t10 12t21.5 10.5t36.5 3q18 0 30 -1.5t26 -7t21.5 -18.5t7.5 -34q0 -19 -13 -120q115 165 205 165q84 0 146.5 -71.5
t62.5 -161.5q0 -19 -1 -29q100 57 170 151q8 10 16 10zM254 17q112 38 168 200q-176 -55 -176 -159q0 -32 8 -41z" />
    <glyph glyph-name="q" unicode="q" horiz-adv-x="655" 
d="M525 181q62 -12 117 -82t86.5 -171.5t31.5 -205.5q0 -22 -1.5 -50.5t-11 -82.5t-25 -95t-48.5 -73t-77 -32q-110 0 -181.5 184.5t-71.5 500.5q0 116 9 222q-13 -29 -36 -97.5t-38.5 -108t-47 -74t-70.5 -34.5q-70 0 -115.5 74.5t-45.5 197.5q0 132 66 225t189 93
q13 0 25.5 -1.5t21.5 -3t19 -5t16 -6t13.5 -6.5t11 -6t9.5 -6t7 -5v1l1 2q1 2 4 16t7 23t19.5 18t40.5 9q40 0 66 -15t19 -53q-31 -173 -42 -320h1q33 19 75 64t72.5 87.5t55 79t25.5 37.5q7 7 14 7q11 0 17.5 -8t-0.5 -21q-1 -1 -13 -19.5t-27 -42t-38.5 -55t-47 -60.5
t-51 -57t-51.5 -45zM174 31q73 79 186 452q-14 17 -40.5 26.5t-45.5 9.5q-58 0 -102.5 -94t-44.5 -219q0 -52 11 -106t36 -69zM616 -566q37 0 65 87.5t28 193.5q0 151 -70 279t-150 148q-5 -78 -5 -145q0 -164 20.5 -296.5t50.5 -199.5t61 -67z" />
    <glyph glyph-name="r" unicode="r" horiz-adv-x="514" 
d="M597 482q9 0 15.5 -7.5t3.5 -21.5q0 -1 -2 -8q-74 -332 -167 -436q-35 -38 -69 -38q-65 0 -98 67.5t-33 189.5q0 35 5.5 128.5t5.5 106.5q-2 -1 -12 -8t-14.5 -9.5t-15 -8.5t-18 -9t-18.5 -7t-22 -5.5t-23 -1.5q-54 0 -94.5 41t-40.5 119q0 77 44 147t103 70q81 0 81 -97
q0 -58 -21.5 -122.5t-34.5 -81.5q9 2 29.5 16.5t47 27.5t55.5 13q62 0 82.5 -30.5t20.5 -109.5q0 -55 -7.5 -169.5t-7.5 -126.5q0 -60 13 -82q25 21 56.5 92t53.5 143t41 135l18 63q9 20 23 20zM126 502l6 14q6 15 9.5 24.5t9.5 29t9.5 35t6.5 36t3 38.5q0 25 -10 45
q-1 -2 -6.5 -12.5t-8.5 -17t-8.5 -18.5t-8.5 -23.5t-7 -26t-5.5 -30.5t-1.5 -33q0 -14 4 -35.5t8 -25.5z" />
    <glyph glyph-name="s" unicode="s" horiz-adv-x="555" 
d="M635 486q15 0 20.5 -12.5t-0.5 -20.5q-75 -134 -253 -230q51 -43 51 -87q0 -57 -42 -105t-96.5 -71.5t-101.5 -23.5q-18 0 -35 3t-37 11.5t-32 27t-12 44.5q0 110 184 195l1 1q-8 2 -18 4q-46 9 -89 25t-84 40t-66 60t-25 78q0 70 72.5 146.5t178.5 76.5
q71 0 120.5 -37.5t49.5 -83.5q0 -30 -13 -55.5t-23 -35.5q-14 -14 -24 -14q-12 0 -18 6t-6 18q0 1 8 22t8 42q0 48 -21 48q-51 0 -113.5 -72.5t-62.5 -128.5q0 -25 34 -42.5t87.5 -32.5t72.5 -25q1 -1 2.5 -2t2.5 -1q200 107 258 214q11 18 22 18zM185 -6q45 0 96 50t51 114
q0 17 -5 28q-2 -2 -3 -2t-22 -11.5t-39.5 -24t-41 -31t-36 -42.5t-13.5 -49q0 -32 13 -32z" />
    <glyph glyph-name="t" unicode="t" horiz-adv-x="278" 
d="M430 890q75 0 121.5 -26t46.5 -72q0 -20 -10.5 -37.5t-26.5 -17.5q-25 0 -25 21q0 10 9 17.5t9 19.5q0 21 -34.5 34t-91.5 13q-95 0 -249 -34q-39 -298 -39 -497q0 -88 12 -203.5t39 -143.5q23 18 46.5 62.5t40.5 97.5t33 112.5t25.5 106.5t15.5 81l7 35q3 8 3.5 10.5
t5.5 7t13 4.5q19 0 19 -24q0 -10 -8.5 -64t-28 -136t-45 -158t-66 -131t-85.5 -55q-160 0 -160 514q2 175 24 347q-193 -44 -274 -44q-75 0 -121 31.5t-46 87.5q0 20 12 43t28 23q13 0 20 -7t7 -19q0 -3 -10 -21t-10 -35q0 -59 114 -59q74 0 287 50q13 84 21 118
q2 11 4.5 18t9 17.5t20 16t32.5 5.5q33 0 53 -14.5t20 -34.5q0 -5 -12 -92q153 32 244 32z" />
    <glyph glyph-name="u" unicode="u" horiz-adv-x="612" 
d="M696 470q20 0 20 -27q0 -9 -7.5 -59.5t-26 -128.5t-43.5 -150.5t-66 -125t-88 -52.5q-68 0 -117 94t-59 217q-1 -3 -9.5 -27.5t-13 -38t-16 -41t-20 -44t-22.5 -39t-27.5 -35t-30.5 -21.5t-34 -9q-37 0 -64.5 28t-42.5 74.5t-22 97t-7 104.5q0 133 29 227q15 49 63 49
q35 0 53.5 -12.5t18.5 -27.5q0 -4 -8 -44.5t-16.5 -108t-8.5 -136.5q0 -55 9.5 -119.5t17.5 -72.5q24 22 52 86.5t46.5 125t36 123.5t18.5 66q0 2 1 3q6 112 14 135q13 35 65 35q29 0 55.5 -12t26.5 -34q0 -10 -7.5 -50t-15.5 -105.5t-8 -137.5q0 -42 3 -92t20 -120.5
t46 -88.5q19 17 36.5 46.5t31.5 64t27.5 76t22.5 79t17.5 76t13.5 64.5t8 46l4 21q4 21 24 21z" />
    <glyph glyph-name="u" unicode="&#xfc;" horiz-adv-x="612" 
d="M696 470q20 0 20 -27q0 -9 -7.5 -59.5t-26 -128.5t-43.5 -150.5t-66 -125t-88 -52.5q-68 0 -117 94t-59 217q-1 -3 -9.5 -27.5t-13 -38t-16 -41t-20 -44t-22.5 -39t-27.5 -35t-30.5 -21.5t-34 -9q-37 0 -64.5 28t-42.5 74.5t-22 97t-7 104.5q0 133 29 227q15 49 63 49
q35 0 53.5 -12.5t18.5 -27.5q0 -4 -8 -44.5t-16.5 -108t-8.5 -136.5q0 -55 9.5 -119.5t17.5 -72.5q24 22 52 86.5t46.5 125t36 123.5t18.5 66q0 2 1 3q6 112 14 135q13 35 65 35q29 0 55.5 -12t26.5 -34q0 -10 -7.5 -50t-15.5 -105.5t-8 -137.5q0 -42 3 -92t20 -120.5
t46 -88.5q19 17 36.5 46.5t31.5 64t27.5 76t22.5 79t17.5 76t13.5 64.5t8 46l4 21q4 21 24 21z" />
    <glyph glyph-name="u" unicode="&#xfb;" horiz-adv-x="612" 
d="M696 470q20 0 20 -27q0 -9 -7.5 -59.5t-26 -128.5t-43.5 -150.5t-66 -125t-88 -52.5q-68 0 -117 94t-59 217q-1 -3 -9.5 -27.5t-13 -38t-16 -41t-20 -44t-22.5 -39t-27.5 -35t-30.5 -21.5t-34 -9q-37 0 -64.5 28t-42.5 74.5t-22 97t-7 104.5q0 133 29 227q15 49 63 49
q35 0 53.5 -12.5t18.5 -27.5q0 -4 -8 -44.5t-16.5 -108t-8.5 -136.5q0 -55 9.5 -119.5t17.5 -72.5q24 22 52 86.5t46.5 125t36 123.5t18.5 66q0 2 1 3q6 112 14 135q13 35 65 35q29 0 55.5 -12t26.5 -34q0 -10 -7.5 -50t-15.5 -105.5t-8 -137.5q0 -42 3 -92t20 -120.5
t46 -88.5q19 17 36.5 46.5t31.5 64t27.5 76t22.5 79t17.5 76t13.5 64.5t8 46l4 21q4 21 24 21z" />
    <glyph glyph-name="u" unicode="&#xfa;" horiz-adv-x="612" 
d="M696 470q20 0 20 -27q0 -9 -7.5 -59.5t-26 -128.5t-43.5 -150.5t-66 -125t-88 -52.5q-68 0 -117 94t-59 217q-1 -3 -9.5 -27.5t-13 -38t-16 -41t-20 -44t-22.5 -39t-27.5 -35t-30.5 -21.5t-34 -9q-37 0 -64.5 28t-42.5 74.5t-22 97t-7 104.5q0 133 29 227q15 49 63 49
q35 0 53.5 -12.5t18.5 -27.5q0 -4 -8 -44.5t-16.5 -108t-8.5 -136.5q0 -55 9.5 -119.5t17.5 -72.5q24 22 52 86.5t46.5 125t36 123.5t18.5 66q0 2 1 3q6 112 14 135q13 35 65 35q29 0 55.5 -12t26.5 -34q0 -10 -7.5 -50t-15.5 -105.5t-8 -137.5q0 -42 3 -92t20 -120.5
t46 -88.5q19 17 36.5 46.5t31.5 64t27.5 76t22.5 79t17.5 76t13.5 64.5t8 46l4 21q4 21 24 21z" />
    <glyph glyph-name="u" unicode="&#xf9;" horiz-adv-x="612" 
d="M696 470q20 0 20 -27q0 -9 -7.5 -59.5t-26 -128.5t-43.5 -150.5t-66 -125t-88 -52.5q-68 0 -117 94t-59 217q-1 -3 -9.5 -27.5t-13 -38t-16 -41t-20 -44t-22.5 -39t-27.5 -35t-30.5 -21.5t-34 -9q-37 0 -64.5 28t-42.5 74.5t-22 97t-7 104.5q0 133 29 227q15 49 63 49
q35 0 53.5 -12.5t18.5 -27.5q0 -4 -8 -44.5t-16.5 -108t-8.5 -136.5q0 -55 9.5 -119.5t17.5 -72.5q24 22 52 86.5t46.5 125t36 123.5t18.5 66q0 2 1 3q6 112 14 135q13 35 65 35q29 0 55.5 -12t26.5 -34q0 -10 -7.5 -50t-15.5 -105.5t-8 -137.5q0 -42 3 -92t20 -120.5
t46 -88.5q19 17 36.5 46.5t31.5 64t27.5 76t22.5 79t17.5 76t13.5 64.5t8 46l4 21q4 21 24 21z" />
    <glyph glyph-name="v" unicode="v" horiz-adv-x="655" 
d="M726 470q4 4 18.5 3t14.5 -12q1 -13 -12 -20q-17 -10 -44.5 -23.5t-93.5 -33.5t-123 -20h-4q-13 -104 -44 -196.5t-86 -159.5t-122 -67q-58 0 -104.5 45.5t-72.5 117.5t-39.5 151.5t-13.5 157.5q0 76 16.5 107t62.5 31q75 0 75 -52q0 -14 -2 -62.5t-2 -70.5
q0 -160 32 -268t72 -108q30 0 66.5 52.5t67 141t42.5 183.5q-180 23 -180 193q0 68 34.5 113t82.5 45q123 0 123 -245q0 -32 -3 -68h5q104 0 234 65zM434 410q3 30 3 62q0 160 -63 196q-20 -16 -30 -52.5t-10 -62.5q0 -120 100 -143z" />
    <glyph glyph-name="w" unicode="w" horiz-adv-x="933" 
d="M1008 481q4 6 16.5 4t12.5 -14q0 -13 -11 -22q-5 -5 -11.5 -10.5t-28 -19t-45 -23.5t-61.5 -18t-80 -8q-11 -84 -31.5 -162.5t-51.5 -149t-76.5 -113t-98.5 -42.5q-57 0 -103 43t-71.5 99t-41.5 124q-68 -212 -160 -212q-72 0 -119 89.5t-47 244.5q0 64 9.5 142t16.5 105
q12 48 72 48q43 0 65 -18.5t22 -34.5q0 -4 -8.5 -60.5t-16.5 -130.5t-8 -120q0 -159 39 -208q47 37 118 276v4q0 116 7 142l1 5q1 5 2.5 8.5t3.5 10t5.5 11.5t8 11t10.5 10.5t13.5 8.5t17.5 6t21 2q39 0 55 -17.5t16 -52.5q0 -21 -1 -76t-1 -81q0 -53 6 -108t17 -106
t31.5 -83.5t46.5 -32.5q32 0 68.5 59t66.5 158t42 206q-71 14 -116 63.5t-45 136.5q0 71 30 117.5t79 46.5q56 0 86 -64t30 -163q0 -40 -5 -98h22q47 0 91.5 16t63.5 29.5t26 21.5zM750 423q0 7 1 20.5t1.5 24.5t0.5 21q0 54 -16 113.5t-36 77.5q-28 -32 -28 -111
q0 -65 18.5 -99t58.5 -47z" />
    <glyph glyph-name="x" unicode="x" horiz-adv-x="487" 
d="M575 467q11 0 15 -10.5t-1 -25.5q0 -1 -5 -17.5t-11.5 -37t-18 -51.5t-24 -61.5t-30 -65.5t-35.5 -65.5t-41 -59t-46.5 -49t-51.5 -32.5t-57 -12q-89 0 -154 101q-35 -84 -59 -157q-8 -25 -30 -25q-31 0 -24 37q27 124 71 229q-53 136 -53 301v8.5v10.5t0.5 11.5t2 13
t4.5 12t7 12t10 10.5t14 9t18.5 5t23.5 2q47 0 63.5 -18t16.5 -53q0 -32 4 -102q57 99 134 189q13 13 33 15q18 0 26 -12t-2 -26q-92 -123 -178 -294q35 -228 105 -228q22 0 50 29t56 79t51.5 97t46.5 102.5t31 75.5l14 35q7 18 24 18z" />
    <glyph glyph-name="y" unicode="y" horiz-adv-x="671" 
d="M753 474q14 0 19 -9.5t1 -22.5q-51 -169 -219 -339v-6q0 -104 -14 -202.5t-49 -194.5t-87 -167t-133.5 -115t-183.5 -44q-114 0 -189 69t-75 179q0 66 36 119.5t91 86t125 61t133.5 47.5t122 43.5t85.5 49.5q-3 211 -19 322q0 1 -1.5 10.5t-2.5 15.5q-7 -15 -24 -67
t-35 -98t-42.5 -95.5t-57.5 -79t-70 -29.5q-45 0 -78.5 41t-49 101t-15.5 128q0 48 8 108.5t17 87.5q8 24 20.5 32t34.5 8q37 0 55.5 -12.5t18.5 -29.5q0 -5 -6.5 -43.5t-13 -96.5t-6.5 -111q0 -34 10 -89.5t26 -70.5q37 34 74.5 112t60.5 150.5t41 136t19 65.5q3 38 50 38
q23 0 39 -5.5t25 -17.5t13 -21.5t8 -26.5q9 -34 22 -130.5t16 -202.5q119 134 182 300q7 15 18 15zM97 -568q82 0 145.5 46.5t100.5 124.5t55.5 171.5t18.5 196.5v12q-41 -29 -115 -57t-141 -50.5t-130.5 -52.5t-102 -76.5t-38.5 -107.5q0 -86 60 -146q61 -61 147 -61z" />
    <glyph glyph-name="y" unicode="&#xff;" horiz-adv-x="671" 
d="M753 474q14 0 19 -9.5t1 -22.5q-51 -169 -219 -339v-6q0 -104 -14 -202.5t-49 -194.5t-87 -167t-133.5 -115t-183.5 -44q-114 0 -189 69t-75 179q0 66 36 119.5t91 86t125 61t133.5 47.5t122 43.5t85.5 49.5q-3 211 -19 322q0 1 -1.5 10.5t-2.5 15.5q-7 -15 -24 -67
t-35 -98t-42.5 -95.5t-57.5 -79t-70 -29.5q-45 0 -78.5 41t-49 101t-15.5 128q0 48 8 108.5t17 87.5q8 24 20.5 32t34.5 8q37 0 55.5 -12.5t18.5 -29.5q0 -5 -6.5 -43.5t-13 -96.5t-6.5 -111q0 -34 10 -89.5t26 -70.5q37 34 74.5 112t60.5 150.5t41 136t19 65.5q3 38 50 38
q23 0 39 -5.5t25 -17.5t13 -21.5t8 -26.5q9 -34 22 -130.5t16 -202.5q119 134 182 300q7 15 18 15zM97 -568q82 0 145.5 46.5t100.5 124.5t55.5 171.5t18.5 196.5v12q-41 -29 -115 -57t-141 -50.5t-130.5 -52.5t-102 -76.5t-38.5 -107.5q0 -86 60 -146q61 -61 147 -61z" />
    <glyph glyph-name="y" unicode="&#xfd;" horiz-adv-x="671" 
d="M753 474q14 0 19 -9.5t1 -22.5q-51 -169 -219 -339v-6q0 -104 -14 -202.5t-49 -194.5t-87 -167t-133.5 -115t-183.5 -44q-114 0 -189 69t-75 179q0 66 36 119.5t91 86t125 61t133.5 47.5t122 43.5t85.5 49.5q-3 211 -19 322q0 1 -1.5 10.5t-2.5 15.5q-7 -15 -24 -67
t-35 -98t-42.5 -95.5t-57.5 -79t-70 -29.5q-45 0 -78.5 41t-49 101t-15.5 128q0 48 8 108.5t17 87.5q8 24 20.5 32t34.5 8q37 0 55.5 -12.5t18.5 -29.5q0 -5 -6.5 -43.5t-13 -96.5t-6.5 -111q0 -34 10 -89.5t26 -70.5q37 34 74.5 112t60.5 150.5t41 136t19 65.5q3 38 50 38
q23 0 39 -5.5t25 -17.5t13 -21.5t8 -26.5q9 -34 22 -130.5t16 -202.5q119 134 182 300q7 15 18 15zM97 -568q82 0 145.5 46.5t100.5 124.5t55.5 171.5t18.5 196.5v12q-41 -29 -115 -57t-141 -50.5t-130.5 -52.5t-102 -76.5t-38.5 -107.5q0 -86 60 -146q61 -61 147 -61z" />
    <glyph glyph-name="z" unicode="z" horiz-adv-x="618" 
d="M702 478q12 0 17.5 -10t-1.5 -26q-87 -175 -227 -349q129 -96 129 -255q0 -102 -41 -193.5t-104.5 -152.5t-138.5 -96.5t-144 -35.5q-25 0 -48 5t-48 18t-40 40.5t-15 65.5q0 73 30.5 149t79.5 140.5t96.5 117t95.5 101.5t64 71q0 1 2 3q-48 42 -112 42q-7 0 -21.5 -1.5
t-16.5 -1.5q-35 -30 -76 -30q-18 0 -37.5 11.5t-19.5 32.5q0 6 6.5 17t17 25t19.5 25t19 23l11 13q10 13 34.5 53t53 109.5t28.5 118.5v8v9.5t-0.5 9t-2.5 9t-4.5 6.5t-7 5.5t-10.5 1.5q-45 0 -98.5 -35t-80.5 -71q-12 -16 -24 -16q-6 0 -14 5t-12.5 16.5t8.5 30.5
q34 49 91.5 85.5t116.5 36.5q66 0 118 -46t52 -118q0 -59 -52 -152t-89 -126q75 -11 142 -47q169 216 231 338q11 20 23 20zM496 -161q0 118 -54 194l-2 -2q-9 -14 -51 -56.5t-88 -94t-92.5 -113t-77 -131.5t-30.5 -132q0 -44 22 -70t64 -26q43 0 96 31.5t101 85.5t80 137.5
t32 176.5z" />
    <glyph glyph-name="braceleft" unicode="{" horiz-adv-x="493" 
d="M374 1095q20 -10 15.5 -25t-20.5 -15h-41q-57 -46 -57 -151q0 -32 5 -104.5t5 -109.5q0 -121 -58 -198q1 -1 7 -5t10.5 -7.5t11.5 -10.5t12.5 -16t10.5 -20.5t7.5 -28t2.5 -35.5q0 -35 -12 -105t-12 -120q0 -113 54 -113q3 0 8 1.5t7 1.5q15 0 19.5 -10.5t-2.5 -17.5
q-17 -19 -51 -19q-164 0 -164 184q0 31 10.5 104t10.5 98q0 39 -12 63q-2 3 -20.5 15.5t-18.5 26.5q0 9 6.5 20t16 22.5t10.5 13.5q5 9 13 46t8 66q0 23 -12.5 118.5t-12.5 142.5q0 88 48 146t127 58q37 0 68 -16z" />
    <glyph glyph-name="verticalbar" unicode="|" horiz-adv-x="342" 
d="M115 1083q0 29 32 36t63 -7t30 -37q-1 -14 -11 -514t-10 -522q0 -18 -11.5 -31t-37.5 -13q-14 0 -23 6t-12.5 13t-6.5 20q-18 77 -24.5 502.5t11.5 546.5z" />
    <glyph glyph-name="braceright" unicode="}" horiz-adv-x="493" 
d="M390 480q0 -14 -18 -26.5t-20 -15.5q-13 -26 -13 -64q0 -26 10.5 -98t10.5 -104q0 -183 -163 -183q-35 0 -51 18q-7 7 -3 17.5t19 10.5q2 0 7 -1t8 -1q54 0 54 113q0 49 -12 119.5t-12 105.5q0 22 4 41t9.5 30.5t14 22t13.5 14.5t14 9l8 6q-58 77 -58 198q0 37 4.5 109
t4.5 104q0 107 -56 152h-41q-16 0 -21 15t15 25q31 16 69 16q79 0 127 -58.5t48 -146.5q0 -47 -12.5 -142.5t-12.5 -118.5q0 -29 8 -66t13 -46q1 -2 10 -13t15.5 -22t6.5 -20z" />
    <glyph glyph-name="asciitilde" unicode="~" horiz-adv-x="741" 
d="M608 577q10 16 23 6q17 -11 4 -38q-49 -110 -151 -110q-34 0 -62.5 10.5t-49 25t-41.5 29t-52 25t-69 10.5q-22 0 -40 -11.5t-25 -22t-8 -15.5q-2 -11 -15 -13q-17 -3 -19 19q-1 8 1 20q1 7 5 19t15.5 32.5t27 38t42.5 30t60 12.5q42 0 80.5 -16.5t62.5 -37t59.5 -37
t71.5 -16.5q50 0 80 40z" />
    <glyph glyph-name="nonbreakingspace" unicode="&#xa0;" horiz-adv-x="501" 
 />
    <glyph glyph-name="exclamdown" unicode="&#xa1;" horiz-adv-x="368" 
d="M186 996q-25 0 -42.5 17t-17.5 41t17.5 41.5t42.5 17.5t42.5 -17.5t17.5 -41.5t-17.5 -41t-42.5 -17zM240 910q25 -111 25 -407q0 -136 -9.5 -278t-15.5 -171q-3 -14 -5 -20t-8 -14.5t-17.5 -11.5t-29.5 -3q-39 0 -61 17t-15 54q15 82 31.5 361.5t15.5 443.5q0 83 50 83
q25 0 39 -54z" />
    <glyph glyph-name="cent" unicode="&#xa2;" horiz-adv-x="729" 
d="M503 1071q15 24 47.5 25t59 -22t13.5 -51q-39 -84 -95 -234q38 -46 38 -114q0 -43 -6 -58q-5 -14 -16 -19.5t-19.5 0.5t-8.5 22q0 56 -16 92q-72 -200 -145 -421q26 -8 50 -8q53 2 101 16q23 10 31 -6q6 -13 -12 -23q-62 -33 -143 -33q-22 0 -43 3q-45 -140 -65 -215
q-11 -43 -55 -43q-26 0 -34.5 16.5t-4.5 39.5q17 89 54 236q-61 35 -96.5 97t-35.5 147q0 133 87 228.5t215 95.5h1q58 156 98 229zM261 378q57 210 118 390q-55 -21 -97 -102t-42 -173q0 -67 21 -115z" />
    <glyph glyph-name="sterling" unicode="&#xa3;" horiz-adv-x="749" 
d="M619 77q12 0 20 -11.5t8 -26.5q0 -85 -151 -85q-49 0 -151.5 10.5t-111.5 10.5q-8 0 -28 -1.5t-23 -1.5q-19 0 -27 16t3 41q20 43 20 195q0 76 -5 286q-26 -1 -49 -1q-9 0 -15.5 7.5t-6.5 18.5q0 22 27 22h43q0 22 -1.5 65.5t-1.5 59.5q0 99 14 175.5t35 120.5t50.5 71.5
t56 37t54.5 9.5q54 0 84.5 -32t30.5 -83q0 -42 -9 -65q-6 -15 -18 -21t-21.5 2t-9.5 29v11v14t-0.5 14.5t-2 16t-4 15t-6.5 16t-10 13.5t-13 12q-30 -26 -50.5 -60t-30.5 -73.5t-15 -87.5t-5 -100.5v-112.5v-47h43q24 0 24 -23q0 -18 -20 -18q-2 0 -8 -0.5t-17 -1t-21 -0.5
q2 -36 0.5 -104t-4.5 -136.5t-17 -138.5t-36 -109q193 -17 216 -17q120 0 144 42q3 26 16 26z" />
    <glyph glyph-name="currency" unicode="&#xa4;" horiz-adv-x="663" 
d="M514 737q15 13 34.5 2.5t7.5 -29.5q-6 -10 -26.5 -37.5t-28.5 -35.5q11 -40 11 -90q0 -117 -56 -193q30 -32 47 -56q13 -21 -0.5 -31.5t-31.5 0.5q-19 12 -51 50q-44 -36 -100 -36q-41 1 -79 25q-22 -32 -32 -39q-17 -12 -34 0.5t-3 32.5q1 2 6.5 9.5t11 16t9.5 14.5
q-70 75 -70 203q-1 60 18 117q-2 3 -18.5 28t-22.5 32q-6 8 -0.5 18t17.5 12.5t28 -6.5q13 -8 26 -29q42 53 94 53h1h1q6 9 28 16.5t42 7.5q44 0 79.5 -27t58.5 -73q3 5 11 16t14.5 19.5t7.5 9.5zM351 332q36 0 69.5 65t33.5 144q0 87 -38 148t-76 61q-10 0 -20 -5
q1 -10 -3 -19q-53 -98 -53 -205q0 -72 26.5 -130.5t60.5 -58.5z" />
    <glyph glyph-name="yen" unicode="&#xa5;" horiz-adv-x="661" 
d="M503 1071q4 20 21 25.5t28.5 -6.5t4.5 -34l-24 -105q-24 -105 -56 -218.5t-55 -152.5q58 -2 59 -2q25 -6 25 -24q0 -6 -1 -9.5t-8 -8t-20 -4.5q-37 0 -68 1q-1 -7 -1 -22v-23h11l6 -1q41 0 41 -25q0 -19 -26 -19q-1 0 -13 0.5t-21 0.5q-5 -188 -5 -419q0 -68 -56 -68
q-22 0 -29 16t-12 53q-1 5 -1 8q-11 85 -13 412h-35q-11 0 -18 7t-7 19q0 20 30 20q1 0 11 -0.5t19 -0.5v45q-26 1 -50 1q-27 0 -27 24q0 22 35 22q1 0 11 -0.5t18 -0.5q-10 10 -21 28.5t-22.5 44.5t-22 51.5t-23 61t-20.5 60.5t-19.5 62.5t-16.5 54.5t-14.5 49t-10.5 35
q-17 44 30 59q42 12 83 -7q21 -10 26 -26q15 -51 71 -231.5t62 -194.5q18 26 68.5 218t55.5 224z" />
    <glyph glyph-name="section" unicode="&#xa7;" horiz-adv-x="813" 
d="M673 344q0 -2 -3 -2q36 -46 36 -95q0 -33 -9 -66.5t-31 -67t-53.5 -59.5t-80.5 -42t-109 -16q-95 0 -172 42.5t-77 114.5q0 27 17 50.5t29 32.5q21 13 31 -3q6 -10 -3 -17q-7 -6 -15 -21t-8 -24q0 -43 54 -77.5t128 -34.5q57 0 105 51.5t48 129.5q0 28 -7 51t-23.5 40
t-31.5 29t-42.5 22.5t-43 16t-48 14.5t-43.5 12q-95 29 -157 84.5t-62 125.5q0 62 44 122q-40 46 -40 102q0 95 90 170t219 75q107 0 165 -42t58 -120q0 -49 -19 -91q-12 -20 -29.5 -13t-9.5 32q3 10 3 42q0 131 -121 131q-80 0 -141 -63t-61 -134q0 -39 15 -66t43 -41.5
t54.5 -22.5t63 -16t54.5 -15q48 -18 83.5 -35.5t68.5 -43t50.5 -59t17.5 -73.5q0 -24 -5.5 -48.5t-11 -38t-13.5 -28.5zM559 428q6 18 6 36q0 35 -12 62.5t-29.5 44t-48 31t-55 22t-64 19.5t-62.5 20q-26 9 -31 12q0 -3 -2.5 -9.5t-4 -17t-1.5 -26.5q0 -24 4.5 -43t17 -33
t21.5 -23t32 -17.5t34 -12t41.5 -11.5t41.5 -11q60 -17 112 -43z" />
    <glyph glyph-name="copyright" unicode="&#xa9;" horiz-adv-x="933" 
d="M467 1003q151 0 257.5 -127t106.5 -315q0 -119 -47.5 -223t-133.5 -168.5t-189 -64.5q-85 0 -155.5 41t-113.5 106.5t-66.5 141.5t-23.5 152q0 117 45 221t130 170t190 66zM467 141q93 0 167.5 60.5t112.5 154.5t38 201q0 98 -36 191t-109.5 156.5t-166.5 63.5
q-134 0 -228 -121t-94 -290q0 -177 92.5 -296.5t223.5 -119.5zM601 693q0 -59 -24 -59q-15 0 -21 17q-1 4 -1 8v29q0 12 -13.5 34t-28.5 22q-31 0 -65.5 -59.5t-34.5 -127.5q0 -17 3 -36t11 -42.5t25.5 -38t43.5 -14.5q27 0 47.5 6t22.5 6q17 0 23.5 -12t-10.5 -24
q-11 -7 -43 -16t-61 -9q-77 0 -129.5 58t-52.5 141q0 82 62 148t140 66q46 0 76 -26.5t30 -70.5z" />
    <glyph glyph-name="softhyphen" unicode="&#xad;" 
 />
    <glyph glyph-name="registered" unicode="&#xae;" horiz-adv-x="933" 
d="M467 1008q152 0 258 -126.5t106 -314.5q0 -119 -47.5 -223.5t-133.5 -169t-189 -64.5q-69 0 -128.5 27t-101 72t-71 102.5t-44 119t-14.5 121.5q0 117 45 221t130 169.5t190 65.5zM467 147q93 0 167.5 60.5t112.5 154.5t38 201q0 98 -36 191t-109.5 156.5t-166.5 63.5
q-134 0 -228 -121.5t-94 -290.5q0 -177 92.5 -296t223.5 -119zM629 670q0 -57 -54.5 -102t-105.5 -59q10 -11 31 -21.5t38.5 -16t36 -11t19.5 -5.5q19 -6 14.5 -21.5t-23.5 -14.5q-25 1 -75.5 16t-85.5 42l-1 1q-2 -7 -5 -18l-3 -11q0 -4 0.5 -9.5t0.5 -6.5q0 -19 -1 -28.5
t-11 -21t-30 -11.5q-37 0 -52 53q-1 3 -2 5q-20 65 -20 182q0 25 2 46t3.5 33t1.5 15q2 31 48 31q31 0 48.5 -11.5t14.5 -39.5q-5 -43 -5 -102q9 20 20.5 40t31.5 48.5t45 46.5t50 18q32 0 50.5 -18.5t18.5 -48.5zM451 554q40 8 75.5 48.5t35.5 76.5q0 11 -2 16
q-58 -20 -109 -141z" />
    <glyph glyph-name="plusminus" unicode="&#xb1;" horiz-adv-x="573" 
d="M439 710q33 -2 33 -26q0 -10 -7 -15t-15 -6t-25 -1q-57 0 -85 -1q-3 -67 -3 -120q0 -26 -13 -44.5t-41 -18.5q-9 0 -16.5 2.5t-12.5 8t-8.5 10t-6 14t-4 14t-3.5 15.5t-2 13q-8 51 -9 101q-20 -1 -41 -2t-32 -1.5t-14 -0.5q-11 0 -21.5 9.5t-10.5 22.5q0 25 57 25
q8 0 60 2q-2 87 2 111q-2 37 29 48t63.5 -1.5t32.5 -32.5q0 -21 -4 -123q87 -2 97 -3zM418 430q34 -5 34 -26q0 -4 -0.5 -6.5t-2 -4.5t-2.5 -3.5t-4 -2.5t-5 -1.5t-6 -0.5h-6.5h-8h-8.5q-125 -2 -261 -2q-28 0 -28 28q0 13 9 17.5t37 3.5h127q20 0 51 -0.5t49 -0.5t25 -1z
" />
    <glyph glyph-name="acute" unicode="&#xb4;" horiz-adv-x="415" 
d="M168 1076q16 17 54.5 18t68 -15.5t21.5 -43.5q-3 -8 -40 -73t-46 -78q-7 -10 -12 -15t-16 -9.5t-27 -4.5q-39 0 -58 21t-6 43q4 6 31 78.5t30 78.5z" />
    <glyph glyph-name="paragraph" unicode="&#xb6;" horiz-adv-x="866" 
d="M710 1120q29 0 41 -14.5t12 -29.5q0 -22 -28 -23q-4 0 -16 -1.5t-36.5 -3.5t-41.5 -3q-3 -92 -12 -545t-9 -472q0 -18 -11.5 -31.5t-37.5 -13.5q-20 0 -28 9.5t-13 29.5q-16 70 -24 458t6 554q-77 -8 -89 -10q-20 -830 -20 -1008q0 -18 -11.5 -31t-37.5 -13q-14 0 -23 6
t-12.5 13t-6.5 20q-9 41 -16.5 224.5t-9.5 389.5q-21 1 -49.5 14t-60 38t-53 69.5t-21.5 99.5q0 89 61.5 152.5t155.5 93.5q6 3 18 5q67 18 125 18q13 0 123.5 2.5t124.5 2.5z" />
    <glyph glyph-name="questiondown" unicode="&#xbf;" horiz-adv-x="745" 
d="M413 979q-25 0 -42.5 17.5t-17.5 41.5t17.5 41t42.5 17t42.5 -17t17.5 -41t-17.5 -41.5t-42.5 -17.5zM613 345q31 -40 31 -103q0 -41 -17.5 -84.5t-49.5 -83.5t-87 -65.5t-122 -25.5q-64 0 -123 25t-101 81.5t-42 134.5q0 58 27 123.5t62.5 118.5t79.5 129t68 141
q13 37 28 92.5t21 68.5q15 33 41 33q49 0 49 -89q0 -70 -24.5 -145.5t-59.5 -140.5t-70 -128.5t-59.5 -130.5t-24.5 -125q0 -64 25.5 -100t93.5 -36q88 0 159.5 68.5t71.5 164.5q0 47 -7 58q-10 16 4 25t26 -6z" />
    <glyph glyph-name="multiply" unicode="&#xd7;" horiz-adv-x="507" 
d="M269 714q28 32 83 19q44 -11 52 -37q3 -11 -4 -21q-17 -26 -91 -143q48 -65 68 -92q11 -13 6 -25t-18.5 -14.5t-29.5 5.5q-16 9 -64 66q-39 -62 -42 -68q-15 -28 -63 -28q-28 0 -48.5 15.5t-12.5 42.5q15 48 77 149q-60 76 -72 95q-20 23 9 37q28 12 46 0l2 -2
q13 -12 55 -66q35 53 47 67z" />
    <glyph glyph-name="divide" unicode="&#xf7;" horiz-adv-x="575" 
d="M287 660q-25 0 -42.5 17.5t-17.5 41.5t17.5 41t42.5 17t42.5 -17t17.5 -41t-17.5 -41.5t-42.5 -17.5zM287 328q-25 0 -42.5 17.5t-17.5 41.5t17.5 41t42.5 17t42.5 -17t17.5 -41t-17.5 -41.5t-42.5 -17.5zM436 573q13 0 25.5 -8t12.5 -23q0 -10 -5 -15t-10 -6.5t-16 -2.5
q-10 -1 -144 -4t-156 -3q-17 0 -29 10t-12 31q0 24 33 24q77 0 148 -1t111.5 -1.5t41.5 -0.5z" />
    <glyph glyph-name="mugreek" unicode="&#x3bc;" horiz-adv-x="626" 
d="M427 605q69 0 69 -60q0 -32 -2 -272t-2 -241q0 -10 -4 -22t-19 -25.5t-38 -13.5q-42 0 -51 74q-10 68 -16 210q-4 -10 -16 -41.5t-21 -55t-26 -54.5t-35 -51.5t-44 -35t-56 -14.5q-31 0 -57 16t-37 29q-1 -9 -1 -47q0 -51 -37 -51q-28 0 -32 49q-2 22 -2 148
q0 60 4.5 216.5t8.5 180.5q3 20 19 31t35.5 11.5t39 -4t32.5 -15.5t12 -24q-5 -70 -5 -208q0 -1 -0.5 -32t-0.5 -52.5t2.5 -57t7 -60.5t14.5 -47.5t24 -30.5q73 33 168 381q0 21 0.5 41.5t0.5 32.5v13q0 40 14 61t51 21z" />
    <glyph glyph-name="perthousand" unicode="&#x2030;" horiz-adv-x="1232" 
d="M567 1089q20 27 53 27.5t58.5 -23.5t11.5 -51q-49 -94 -189.5 -463t-191.5 -552q-4 -14 -19.5 -26.5t-35.5 -12.5q-41 0 -31 53q44 245 150 557t194 491zM392 936q0 -20 -6 -46t-19.5 -56t-43 -50t-68.5 -20q-74 0 -113.5 53.5t-39.5 125.5q0 64 33.5 107t78.5 43
q6 0 14.5 -1t11.5 -1q10 3 21 3q57 0 94 -42t37 -116zM225 896q0 -37 10.5 -62.5t26.5 -25.5q20 0 46 38.5t26 91.5q0 80 -56 112q-2 1 -3 2q-22 -34 -36 -82t-14 -74zM656 313q57 0 94 -41.5t37 -115.5q0 -20 -6 -46t-19.5 -56t-43 -50t-68.5 -20q-74 0 -113.5 53.5
t-39.5 125.5q0 64 33 107t78 43q6 0 15 -1.5t12 -1.5q11 3 21 3zM657 27q20 0 46 38.5t26 92.5q0 14 -1.5 26t-4.5 21.5t-6.5 17.5t-8.5 14.5t-8.5 11t-9.5 8.5t-8.5 6t-7.5 5l-5 3q-22 -34 -35.5 -81.5t-13.5 -73.5q0 -37 10.5 -63t26.5 -26zM999 320q57 0 94 -42t37 -116
q0 -20 -6 -46t-19.5 -56t-43 -50t-68.5 -20q-74 0 -113.5 53.5t-39.5 125.5q0 64 33 107.5t78 43.5q6 0 15 -1.5t12 -1.5q10 3 21 3zM1000 34q20 0 46 39t26 92q0 12 -1.5 23.5t-3.5 20t-5.5 17t-6.5 14t-7.5 11t-8 8.5t-8.5 7t-7 5.5t-6 4t-5 2.5q-22 -34 -36 -81.5
t-14 -73.5q0 -37 10.5 -63t26.5 -26z" />
    <glyph glyph-name="Euro" unicode="&#x20ac;" horiz-adv-x="638" 
d="M445 1087q44 0 68 -19.5t24 -46.5q0 -23 -10 -29.5t-20 -1t-13 13.5q-12 29 -22 29q-41 -12 -94 -132t-72 -295h45q11 0 22 -6t11 -19q0 -22 -38 -22q-22 0 -45 -1q-1 -19 -3 -59q14 0 29.5 -0.5t23.5 -1t9 -0.5q9 0 18 -6.5t9 -19.5q0 -20 -36 -20h-54v-1
q0 -110 18 -199t35 -125.5t31 -51.5q46 -48 81 -48q10 0 20 2t12 2q17 0 18.5 -13t-9.5 -20q-22 -18 -75 -18q-36 0 -76.5 20t-63.5 45q-20 23 -43 63.5t-49.5 136t-27.5 206.5h-40q-26 0 -26 28q0 25 35 25q1 0 12 -0.5t20 -0.5q0 18 2 52q-23 -1 -41 -1q-26 0 -26 28
q0 25 34 25h37q21 214 96 347.5t174 133.5z" />
    <glyph glyph-name="trademark" unicode="&#x2122;" horiz-adv-x="874" 
d="M338 1118q43 0 48 -24q4 -17 -13 -23q-4 -1 -9 -1q-18 0 -54 -2q-10 -41 -10 -219q0 -38 -44 -38q-45 0 -54 48q-18 99 -15 201q-10 -1 -23.5 -2t-20 -1.5t-9.5 -0.5q-27 0 -31 23q-5 21 13 28q3 1 7 1q5 0 37.5 2.5t81.5 5t96 2.5zM705 1102q66 0 66 -45
q0 -17 -7.5 -103t-9.5 -103q-1 -11 -5 -21t-17 -20t-33 -10q-50 0 -52 54q0 7 -1 63.5t-2 67.5q-7 -6 -19.5 -26t-26 -34t-28.5 -14q-13 0 -22.5 9t-16.5 23.5t-9 17.5q-1 -12 -1 -118q0 -13 -10 -24.5t-33 -11.5q-25 0 -40 16t-17 38q-1 8 -4.5 34.5t-6 59t-2.5 65.5
q0 47 11 65t41 18q17 0 30.5 -5.5t22 -12t18.5 -23t14.5 -25.5t14.5 -33.5t15 -34.5q13 12 34.5 47.5t44.5 60.5t51 25z" />
    </font>
</defs>
</svg>
